<svg width="70" height="138" viewBox="0 0 70 138" fill="none" xmlns="http://www.w3.org/2000/svg">
<path d="M69.1955 48.9301C69.3239 49.0906 69.4243 49.1629 69.4363 49.2512C69.5888 50.2626 69.7573 51.2579 69.8376 52.2974C70.3431 57.4225 69.6048 62.4313 68.5014 67.42C67.888 70.2313 66.8026 72.9182 65.2914 75.3666C63.6865 77.9914 62.1456 80.6604 60.4283 83.2249C57.2946 87.9046 53.2702 91.6532 48.6639 94.8639C47.2676 95.8231 45.8071 96.686 44.3746 97.593C41.3974 99.4673 38.1433 100.715 34.837 101.851C33.3886 102.349 33.4205 102.357 33.6733 103.882C34.8491 110.662 36.6271 117.324 38.9858 123.789C40.2608 127.369 41.8534 130.827 43.7446 134.123C44.1017 134.749 44.4387 135.384 44.7477 136.034C44.9764 136.507 45.0848 137.021 44.6675 137.467C44.3184 137.84 43.7567 137.804 43.1388 137.314C42.6593 136.927 42.2135 136.5 41.8065 136.038C40.9353 135.025 40.1915 133.909 39.5916 132.715C38.1907 129.969 36.984 127.129 35.9804 124.214C33.503 117.306 31.659 110.186 30.4714 102.943C30.3389 102.14 30.4514 101.193 29.9739 100.563C29.4964 99.9329 28.5013 99.9449 27.743 99.6519C26.1672 99.0198 24.7008 98.1435 23.3975 97.0552C21.104 95.2375 18.9733 93.2231 17.0297 91.0351C12.4194 85.6731 9.30185 79.5687 8.14626 72.5331C7.74887 69.6877 7.1616 66.872 6.38866 64.1049C5.21429 59.9971 3.21267 56.1729 0.506554 52.8673C0.323251 52.6263 0.156904 52.3729 0.00891654 52.1088C-0.0111457 52.0807 0.00891654 52.0245 0.00891654 51.9763C0.153274 51.9223 0.307989 51.9014 0.461492 51.9153C0.614995 51.9292 0.763335 51.9775 0.895651 52.0566C3.70436 53.1763 6.51303 54.276 9.18131 55.761C11.8191 57.2757 14.1198 59.3133 15.9423 61.749C19.2873 65.9815 22.1762 70.5555 24.561 75.3947C24.87 76.0449 25.167 76.6991 25.492 77.3412C26.6539 79.6307 27.584 82.0306 28.2686 84.5052C28.4131 85.027 28.4571 85.6089 28.8824 86.0584C29.1673 85.8377 29.031 85.5728 29.031 85.3601C28.9808 79.4003 29.4021 73.4458 30.2909 67.5525C30.3712 66.9986 30.6039 66.3966 30.3671 65.8869C30.0943 65.2929 29.372 65.4614 28.8544 65.337C24.6253 64.3216 21.4876 61.8494 19.1885 58.2252C18.4221 57.0083 17.741 55.7397 17.1502 54.4285C16.5295 53.016 16.1171 51.5207 15.9262 49.9896C15.1339 44.1134 15.6672 38.1342 17.4871 32.4911C18.6628 28.8743 20.1392 25.3623 21.9008 21.9919C22.0846 21.6247 22.2979 21.273 22.5387 20.9404C24.6332 18.0627 26.9525 15.3978 29.8093 13.2386C30.0421 13.062 30.2387 12.7891 30.6118 12.8694C30.685 13.1167 30.6708 13.3817 30.5717 13.6199C29.4921 18.2184 28.6496 22.8694 28.0478 27.5545C27.495 31.8872 27.2764 36.256 27.3938 40.6223C27.4977 43.7556 27.9281 46.8694 28.6779 49.9134C29.3881 52.7509 30.1465 55.5763 31.0413 58.3617C31.1657 58.763 31.3061 59.1363 31.4425 59.5175C31.8759 59.4292 31.8677 59.0921 31.9319 58.8112C32.7144 55.5683 33.4126 52.3014 34.2953 49.0866C35.8441 43.6029 37.6789 38.2042 39.7923 32.9125C41.2167 29.3004 42.7374 25.6883 44.1538 22.0521C45.6806 18.2949 46.9096 14.4234 47.8293 10.4734C48.0888 9.32054 48.2684 8.1512 48.3669 6.97365C48.5354 4.72211 48.744 2.47055 48.9447 0.223022C48.9513 0.177453 48.9691 0.134253 48.9964 0.0971609C49.0237 0.0600684 49.0597 0.0302087 49.1012 0.0102978C49.1466 -0.00200236 49.1943 -0.00329302 49.2403 0.00647638C49.2863 0.0162458 49.3296 0.0368012 49.3661 0.0664918C49.651 0.427701 49.9318 0.796945 50.1886 1.17822C53.2059 5.593 55.1921 10.4774 56.5644 15.6266C57.402 18.6995 58.0003 21.8326 58.3539 24.998C58.7889 28.7292 58.693 32.5032 58.069 36.2075C57.9331 36.9128 57.7344 37.6046 57.4752 38.2744C55.8809 42.5708 53.5132 46.5386 50.4895 49.9816C46.4534 54.5799 41.9212 58.7175 36.9755 62.3189C36.2733 62.8326 35.5031 63.2541 34.7528 63.6996C34.4558 63.849 34.2006 64.0699 34.0101 64.3424C33.8196 64.6149 33.6997 64.9305 33.6613 65.2608C33.4687 66.8381 33.1798 68.4073 32.9872 69.9846C32.2439 75.4852 31.9208 81.0345 32.0203 86.5842C32.0805 88.6752 32.2129 90.7702 32.3132 92.8692C32.7144 92.8692 32.7466 92.5642 32.8228 92.3475C34.012 89.106 35.8636 86.148 38.2596 83.6624C40.2488 81.5134 42.3574 79.4781 44.5753 77.566C48.1182 74.5198 51.6691 71.4816 55.172 68.3873C60.8335 63.3825 65.119 57.3463 68.357 50.5435C68.5777 50.082 68.7902 49.6164 69.0149 49.1508C69.035 49.0385 69.0912 49.0144 69.1955 48.9301Z" fill="#588454" fill-opacity="0.7"/>
</svg>
