<svg width="430" height="350" viewBox="0 0 430 350" fill="none" xmlns="http://www.w3.org/2000/svg">
<path d="M238.831 82.5682C238.417 82.5682 238.045 82.2775 237.958 81.855L236.375 74.1589C236.276 73.6757 236.586 73.2039 237.069 73.1043C237.552 73.0043 238.024 73.3157 238.123 73.7989L239.707 81.495C239.806 81.9782 239.495 82.45 239.012 82.5496C238.952 82.5621 238.891 82.5682 238.831 82.5682Z" fill="#DEE5DC"/>
<path d="M247.595 78.9427C247.18 78.9427 246.809 78.652 246.721 78.2295L245.139 70.5334C245.04 70.0505 245.35 69.5784 245.833 69.4791C246.315 69.3791 246.788 69.6909 246.888 70.1738L248.471 77.8698C248.57 78.3527 248.259 78.8248 247.776 78.9241C247.715 78.9366 247.655 78.9427 247.595 78.9427Z" fill="#DEE5DC"/>
<path d="M255.641 77.2876C255.226 77.2876 254.855 76.9968 254.767 76.5743L253.185 68.8783C253.085 68.3951 253.396 67.9233 253.879 67.8236C254.362 67.724 254.834 68.0351 254.933 68.5183L256.517 76.2143C256.616 76.6976 256.305 77.1693 255.822 77.269C255.761 77.2818 255.701 77.2876 255.641 77.2876Z" fill="#DEE5DC"/>
<path d="M264.669 75.0662C264.255 75.0662 263.883 74.7755 263.796 74.353L262.213 66.6569C262.114 66.1741 262.425 65.7019 262.908 65.6027C263.391 65.5027 263.863 65.8144 263.962 66.2973L265.545 73.9934C265.644 74.4762 265.333 74.9484 264.851 75.0477C264.79 75.0602 264.729 75.0662 264.669 75.0662Z" fill="#DEE5DC"/>
<path d="M272.933 72.6373C272.518 72.6373 272.147 72.3466 272.06 71.9241L270.477 64.2284C270.377 63.7451 270.688 63.2734 271.171 63.1737C271.654 63.0737 272.126 63.3851 272.225 63.8684L273.808 71.5641C273.908 72.0473 273.597 72.5191 273.114 72.6187C273.053 72.6312 272.993 72.6373 272.933 72.6373Z" fill="#DEE5DC"/>
<path d="M282.028 70.7665C281.613 70.7665 281.241 70.4758 281.154 70.0533L279.572 62.3573C279.473 61.874 279.784 61.4023 280.267 61.303C280.75 61.203 281.222 61.5148 281.321 61.9976L282.904 69.6937C283.003 70.1769 282.692 70.6487 282.209 70.748C282.148 70.7608 282.088 70.7665 282.028 70.7665Z" fill="#DEE5DC"/>
<path d="M290.074 69.1122C289.659 69.1122 289.287 68.8215 289.2 68.399L287.617 60.7029C287.518 60.2201 287.829 59.7479 288.312 59.6487C288.794 59.5483 289.267 59.8604 289.367 60.3433L290.949 68.0394C291.048 68.5222 290.738 68.9944 290.255 69.0937C290.194 69.1065 290.133 69.1122 290.074 69.1122Z" fill="#DEE5DC"/>
<path d="M299.235 67.5923C298.821 67.5923 298.449 67.3016 298.362 66.8791L296.779 59.183C296.68 58.7002 296.991 58.228 297.473 58.1288C297.956 58.0284 298.428 58.3405 298.528 58.8234L300.111 66.5195C300.21 67.0023 299.899 67.4745 299.416 67.5738C299.356 67.5863 299.295 67.5923 299.235 67.5923Z" fill="#DEE5DC"/>
<path d="M307.414 66.6392C307 66.6392 306.628 66.3485 306.541 65.926L304.958 58.2299C304.859 57.7471 305.17 57.2749 305.652 57.1757C306.136 57.0757 306.607 57.3874 306.707 57.8703L308.29 65.5664C308.389 66.0492 308.078 66.5214 307.595 66.6207C307.535 66.6335 307.474 66.6392 307.414 66.6392Z" fill="#DEE5DC"/>
<path d="M316.51 64.7686C316.095 64.7686 315.723 64.4779 315.636 64.0554L314.053 56.3593C313.955 55.8765 314.265 55.4043 314.748 55.305C315.232 55.2047 315.703 55.5168 315.803 55.9997L317.386 63.6957C317.485 64.1786 317.174 64.6507 316.691 64.75C316.63 64.7625 316.57 64.7686 316.51 64.7686Z" fill="#DEE5DC"/>
<path d="M324.887 64.8686C324.472 64.8686 324.1 64.5779 324.014 64.1554L322.431 56.4593C322.332 55.9761 322.643 55.5043 323.126 55.405C323.609 55.3046 324.081 55.6168 324.18 56.0996L325.763 63.7957C325.862 64.2789 325.551 64.7507 325.068 64.85C325.007 64.8625 324.947 64.8686 324.887 64.8686Z" fill="#DEE5DC"/>
<path d="M235.16 78.6883C234.784 78.6883 234.435 78.4498 234.312 78.0737C234.158 77.6051 234.413 77.1005 234.882 76.9469C235.469 76.7544 293.657 57.7933 326.966 57.7933C327.115 57.7933 327.262 57.7937 327.409 57.7944C327.903 57.7969 328.3 58.2305 328.298 58.7233C328.295 59.2148 327.896 59.6433 327.405 59.6433C327.403 59.6433 327.402 59.6433 327.4 59.6433C327.255 59.6433 327.108 59.6108 326.962 59.6108C293.94 59.6108 236.022 78.468 235.438 78.6594C235.346 78.6898 235.252 78.6883 235.16 78.6883Z" fill="#DEE5DC"/>
<path d="M234.004 81.0146C234.004 81.0146 347.087 48.2142 419.643 61.7856V120.714L234.004 81.0146Z" fill="#DEE5DC"/>
<path d="M16.4284 216.734V70.8837C16.4284 70.8837 293.333 66.7708 419.643 120.555V205.344L16.4284 216.734Z" fill="#EAEFE8"/>
<path d="M429.999 125.582C429.883 125.582 429.764 125.559 429.649 125.51C386.896 107.271 312.324 90.3737 239.671 82.4626C239.181 82.4094 238.827 81.9687 238.88 81.4783C238.933 80.9883 239.371 80.6344 239.864 80.6872C312.678 88.6158 387.448 105.565 430.351 123.868C430.804 124.062 431.014 124.586 430.821 125.039C430.677 125.379 430.347 125.582 429.999 125.582Z" fill="#161616"/>
<path d="M16.4284 216.614C16.4284 216.614 206.071 152.451 419.643 175.06V299.482L16.4284 295.919V216.614Z" fill="#EAEFE8"/>
<path d="M430.001 175.893C429.96 175.893 429.919 175.89 429.877 175.885C419.507 174.443 408.866 173.195 398.248 172.176C397.757 172.129 397.397 171.692 397.445 171.201C397.492 170.711 397.925 170.348 398.419 170.398C409.061 171.42 419.728 172.671 430.123 174.116C430.611 174.184 430.952 174.635 430.885 175.123C430.822 175.57 430.44 175.893 430.001 175.893Z" fill="#161616"/>
<path d="M384.959 171.011C384.936 171.011 384.912 171.01 384.888 171.008C372.064 169.997 358.896 169.281 345.749 168.877C345.256 168.862 344.869 168.475 344.884 167.983C344.899 167.499 345.295 167.143 345.776 167.143C345.785 167.143 345.795 167.143 345.804 167.143C358.978 167.5 372.176 168.241 385.028 169.253C385.52 169.292 385.887 169.709 385.848 170.201C385.811 170.668 385.42 171.011 384.959 171.011Z" fill="#161616"/>
<path d="M117.975 189.587C117.559 189.587 117.188 189.296 117.101 188.873C117.003 188.39 117.314 187.918 117.797 187.819C177.091 175.692 236.109 168.709 293.214 167.064C293.706 167.056 294.118 167.438 294.132 167.931C294.147 168.424 293.758 168.835 293.266 168.849C236.264 170.491 177.348 177.462 118.154 189.569C118.094 189.581 118.034 189.587 117.975 189.587Z" fill="#161616"/>
<path d="M4.17181e-07 221.347C-0.362857 221.347 -0.703928 221.124 -0.8375 220.764C-1.00857 220.301 -0.772501 219.788 -0.310358 219.616C-0.214644 219.581 9.41928 216.024 26.3936 210.848C42.0518 206.074 67.3468 198.903 98.9321 191.853C99.4161 191.747 99.8907 192.049 99.9982 192.53C100.106 193.011 99.8025 193.489 99.3211 193.596C67.8 200.63 42.5582 207.786 26.9336 212.55C10.0036 217.711 0.404999 221.255 0.309642 221.291C0.207856 221.329 0.103215 221.347 4.17181e-07 221.347Z" fill="#161616"/>
<path d="M195.635 169.837L169.69 275.486L192.175 279.624L211.634 206.061C211.634 206.061 220.139 207.978 228.787 205.484L250.84 274.333L272.119 264.964L239.742 167.243" fill="#1D5E73"/>
<path d="M195.635 170.73C195.382 170.73 195.14 170.623 194.971 170.434C194.789 170.233 194.71 169.959 194.754 169.691L199.799 139.344C199.841 139.089 199.993 138.864 200.214 138.729C200.457 138.58 206.268 135.082 215.457 134.358C224.649 133.633 232.553 136.944 232.885 137.085C233.144 137.195 233.336 137.421 233.402 137.694L239.83 163.859C239.947 164.338 239.655 164.821 239.176 164.939C238.696 165.056 238.213 164.764 238.096 164.285L231.778 138.568C230.066 137.916 223.199 135.538 215.597 136.138C208.083 136.73 202.845 139.323 201.491 140.058L196.699 168.88L239.69 166.351C240.181 166.319 240.605 166.698 240.634 167.19C240.663 167.682 240.287 168.105 239.795 168.134L195.687 170.729C195.67 170.73 195.652 170.73 195.635 170.73Z" fill="#161616"/>
<path d="M175.612 251.369L196.029 265.054L185.763 302.397L167.087 284.264L175.612 251.369Z" fill="#FAFCFA"/>
<path d="M185.763 303.289C185.533 303.289 185.309 303.201 185.141 303.037L166.465 284.905C166.234 284.681 166.142 284.351 166.223 284.04L174.748 251.144C174.82 250.864 175.024 250.637 175.295 250.534C175.565 250.43 175.869 250.465 176.109 250.627L196.526 264.313C196.845 264.527 196.992 264.92 196.89 265.291L186.623 302.633C186.54 302.938 186.302 303.175 185.997 303.258C185.92 303.279 185.84 303.289 185.763 303.289ZM168.082 283.985L185.302 300.704L194.998 265.438L176.161 252.811L168.082 283.985Z" fill="#161616"/>
<path d="M157.291 275.972C157.291 275.972 164.032 271.671 169.681 275.229C175.33 278.787 183.138 286.938 183.138 286.938" fill="#FAFCFA"/>
<path d="M183.138 287.831C182.903 287.831 182.668 287.739 182.493 287.556C182.416 287.475 174.695 279.442 169.205 275.984C167.092 274.653 164.548 274.363 161.644 275.117C159.404 275.699 157.786 276.715 157.77 276.725C157.353 276.989 156.802 276.866 156.538 276.45C156.274 276.034 156.396 275.483 156.811 275.219C156.885 275.172 158.643 274.061 161.14 273.403C164.515 272.513 167.632 272.883 170.157 274.473C175.833 278.048 183.461 285.984 183.782 286.32C184.123 286.676 184.111 287.242 183.755 287.583C183.582 287.748 183.36 287.831 183.138 287.831Z" fill="#161616"/>
<path d="M186.632 301.237C188.067 304.387 173.648 308.802 166.349 301.452C159.015 294.067 150.346 280.291 155.705 276.294C161.064 272.297 180.9 288.647 186.632 301.237Z" fill="#161616"/>
<path d="M157.292 283.716C157.009 283.716 156.732 283.582 156.558 283.333C156.277 282.928 156.377 282.371 156.782 282.09L161.388 278.89C161.793 278.61 162.349 278.71 162.631 279.115C162.912 279.52 162.812 280.076 162.407 280.357L157.8 283.557C157.645 283.665 157.468 283.716 157.292 283.716Z" fill="#EAEFE8"/>
<path d="M159.022 286.887C158.745 286.887 158.471 286.759 158.297 286.516C158.008 286.116 158.099 285.558 158.499 285.27L165.124 280.499C165.524 280.211 166.082 280.302 166.37 280.702C166.658 281.102 166.567 281.66 166.167 281.948L159.543 286.719C159.385 286.833 159.202 286.887 159.022 286.887Z" fill="#EAEFE8"/>
<path d="M160.751 290.059C160.47 290.059 160.193 289.926 160.019 289.678C159.736 289.274 159.834 288.718 160.238 288.435L167.237 283.533C167.641 283.25 168.197 283.349 168.48 283.752C168.763 284.156 168.665 284.713 168.261 284.996L161.263 289.897C161.107 290.006 160.928 290.059 160.751 290.059Z" fill="#EAEFE8"/>
<path d="M168.913 300.238C168.644 300.238 168.379 300.117 168.203 299.887C167.903 299.495 167.978 298.935 168.371 298.635L175.393 293.269C175.785 292.969 176.345 293.045 176.644 293.437C176.944 293.829 176.869 294.389 176.477 294.688L169.455 300.054C169.293 300.178 169.102 300.238 168.913 300.238Z" fill="#EAEFE8"/>
<path d="M171.508 302.544C171.239 302.544 170.973 302.423 170.798 302.193C170.498 301.801 170.573 301.241 170.965 300.942L177.988 295.576C178.38 295.276 178.94 295.351 179.239 295.743C179.539 296.135 179.464 296.695 179.072 296.995L172.049 302.361C171.887 302.484 171.697 302.544 171.508 302.544Z" fill="#EAEFE8"/>
<path d="M266.449 248.014L246.902 262.918L259.422 299.566L276.96 280.331L266.449 248.014Z" fill="#FAFCFA"/>
<path d="M259.422 300.459C259.362 300.459 259.301 300.452 259.241 300.44C258.932 300.376 258.679 300.153 258.577 299.854L246.057 263.206C245.933 262.842 246.056 262.44 246.361 262.207L265.907 247.304C266.138 247.129 266.439 247.076 266.715 247.162C266.991 247.248 267.208 247.463 267.298 247.738L277.809 280.054C277.908 280.359 277.836 280.695 277.62 280.932L260.082 300.168C259.911 300.355 259.671 300.459 259.422 300.459ZM247.955 263.238L259.779 297.849L275.95 280.113L265.988 249.488L247.955 263.238Z" fill="#161616"/>
<path d="M286.233 271.457C286.233 271.457 279.242 267.575 273.82 271.47C268.399 275.365 261.101 283.976 261.101 283.976" fill="#FAFCFA"/>
<path d="M261.101 284.869C260.897 284.869 260.692 284.8 260.524 284.658C260.148 284.339 260.101 283.775 260.42 283.399C260.721 283.044 267.852 274.659 273.299 270.745C275.723 269.005 278.813 268.446 282.234 269.128C284.768 269.633 286.59 270.634 286.666 270.676C287.097 270.916 287.253 271.459 287.013 271.89C286.774 272.321 286.23 272.475 285.8 272.238C285.784 272.229 284.108 271.313 281.836 270.869C278.891 270.293 276.369 270.739 274.342 272.195C269.073 275.981 261.855 284.469 261.783 284.554C261.606 284.762 261.354 284.869 261.101 284.869Z" fill="#161616"/>
<path d="M258.483 298.462C257.244 301.693 271.904 305.222 278.742 297.442C285.614 289.623 293.428 275.346 287.836 271.682C282.243 268.019 263.439 285.546 258.483 298.462Z" fill="#161616"/>
<path d="M286.649 279.189C286.491 279.189 286.331 279.147 286.186 279.059L281.393 276.146C280.972 275.89 280.838 275.34 281.094 274.919C281.35 274.497 281.9 274.365 282.321 274.62L287.114 277.533C287.535 277.789 287.669 278.339 287.413 278.76C287.245 279.036 286.95 279.189 286.649 279.189Z" fill="#EAEFE8"/>
<path d="M285.116 282.46C284.952 282.46 284.788 282.415 284.639 282.322L277.737 277.963C277.32 277.7 277.195 277.148 277.458 276.731C277.722 276.314 278.273 276.19 278.69 276.453L285.593 280.812C286.01 281.075 286.134 281.626 285.871 282.043C285.702 282.312 285.412 282.46 285.116 282.46Z" fill="#EAEFE8"/>
<path d="M283.582 285.73C283.423 285.73 283.262 285.688 283.116 285.599L275.832 281.132C275.412 280.874 275.28 280.325 275.538 279.904C275.796 279.484 276.347 279.353 276.766 279.61L284.049 284.077C284.47 284.334 284.602 284.884 284.344 285.304C284.175 285.579 283.882 285.73 283.582 285.73Z" fill="#EAEFE8"/>
<path d="M276.055 296.387C275.884 296.387 275.71 296.338 275.558 296.235L268.222 291.306C267.812 291.031 267.704 290.477 267.978 290.067C268.254 289.658 268.809 289.549 269.218 289.824L276.554 294.753C276.963 295.028 277.072 295.582 276.797 295.992C276.625 296.248 276.343 296.387 276.055 296.387Z" fill="#EAEFE8"/>
<path d="M273.606 298.847C273.435 298.847 273.261 298.797 273.108 298.695L265.772 293.766C265.363 293.491 265.255 292.936 265.529 292.527C265.805 292.118 266.359 292.01 266.768 292.283L274.104 297.212C274.513 297.488 274.622 298.042 274.347 298.452C274.175 298.708 273.893 298.847 273.606 298.847Z" fill="#EAEFE8"/>
<path d="M211.634 207.242C206.448 207.242 204.199 203.884 204.106 203.741C203.836 203.328 203.953 202.775 204.366 202.505C204.777 202.237 205.328 202.351 205.599 202.762C205.679 202.881 207.46 205.456 211.634 205.456C212.127 205.456 212.527 205.856 212.527 206.349C212.527 206.842 212.127 207.242 211.634 207.242Z" fill="#161616"/>
<path d="M229.323 206.692C228.938 206.692 228.705 206.662 228.664 206.656C228.176 206.589 227.835 206.139 227.902 205.65C227.969 205.163 228.417 204.824 228.904 204.887C229.073 204.909 232.732 205.312 236.507 201.473C236.853 201.122 237.417 201.117 237.769 201.463C238.121 201.809 238.126 202.374 237.779 202.725C234.281 206.284 230.755 206.692 229.323 206.692Z" fill="#161616"/>
<path d="M181.558 227.158L189.575 229.2L192.457 217.668L184.534 215.039L181.558 227.158Z" fill="#B2BCAF"/>
<path d="M193.571 220.714H191.071C190.578 220.714 190.178 220.315 190.178 219.821C190.178 219.328 190.578 218.928 191.071 218.928H193.571C194.065 218.928 194.464 219.328 194.464 219.821C194.464 220.315 194.065 220.714 193.571 220.714Z" fill="#161616"/>
<path d="M191.303 229.516C191.133 229.516 190.961 229.468 190.809 229.366L188.646 227.925C188.236 227.651 188.125 227.097 188.399 226.687C188.672 226.276 189.226 226.165 189.637 226.439L191.799 227.881C192.209 228.154 192.32 228.708 192.047 229.119C191.875 229.377 191.592 229.516 191.303 229.516Z" fill="#161616"/>
<path d="M192.314 224.904C192.242 224.904 192.169 224.895 192.097 224.876L189.79 224.3C189.312 224.18 189.021 223.695 189.141 223.217C189.26 222.739 189.747 222.446 190.223 222.568L192.53 223.145C193.008 223.264 193.299 223.749 193.179 224.227C193.078 224.633 192.714 224.904 192.314 224.904Z" fill="#161616"/>
<path d="M204.849 138.16L204.117 169.916C204.117 169.916 204.493 173.559 207.649 173.367C210.806 173.175 210.714 169.527 210.714 169.527V136.657C210.714 136.657 206.122 137.67 204.849 138.16Z" fill="#1D5E73"/>
<path d="M207.254 174.267C204.297 174.267 203.286 171.499 203.168 169.987C203.129 169.495 203.496 169.065 203.988 169.027C204.477 168.985 204.908 169.354 204.948 169.844C204.973 170.129 205.267 172.618 207.446 172.476C209.636 172.343 209.596 169.851 209.584 169.568C209.563 169.077 209.944 168.659 210.435 168.637C210.909 168.617 211.343 168.992 211.368 169.483C211.445 171.049 210.749 174.064 207.555 174.258C207.452 174.264 207.352 174.267 207.254 174.267Z" fill="#161616"/>
<path d="M207.313 170.351C207.77 170.351 208.142 169.98 208.142 169.522C208.142 169.064 207.77 168.693 207.313 168.693C206.855 168.693 206.484 169.064 206.484 169.522C206.484 169.98 206.855 170.351 207.313 170.351Z" fill="#161616"/>
<path d="M228.657 137.202L230.832 168.892C230.832 168.892 230.632 172.548 227.47 172.5C224.308 172.452 224.243 168.803 224.243 168.803L222.742 135.968C222.742 135.967 227.364 136.77 228.657 137.202Z" fill="#1D5E73"/>
<path d="M227.667 173.387C227.641 173.387 227.616 173.387 227.59 173.386C224.39 173.338 223.557 170.336 223.563 168.768C223.565 168.276 223.965 167.856 224.456 167.856C224.457 167.856 224.459 167.856 224.46 167.856C224.953 167.856 225.351 168.281 225.349 168.775C225.35 169.055 225.424 171.556 227.617 171.59C229.86 171.621 229.99 168.968 229.993 168.854C230.009 168.361 230.419 167.98 230.915 167.994C231.407 168.01 231.794 168.424 231.778 168.917C231.726 170.471 230.8 173.387 227.667 173.387Z" fill="#161616"/>
<path d="M227.615 169.473C228.073 169.473 228.444 169.102 228.444 168.644C228.444 168.187 228.073 167.816 227.615 167.816C227.158 167.816 226.786 168.187 226.786 168.644C226.786 169.102 227.158 169.473 227.615 169.473Z" fill="#161616"/>
<path d="M207.655 136.833L210.235 144.537L213.792 135.499C213.792 135.499 209.981 136.049 207.655 136.833Z" fill="#F9FCF7"/>
<path d="M210.235 145.357C210.227 145.357 210.22 145.357 210.212 145.357C209.837 145.357 209.507 145.14 209.388 144.784L206.808 137.099C206.652 136.632 206.903 136.135 207.37 135.978C209.745 135.177 213.506 134.633 213.664 134.611C213.98 134.565 214.295 134.693 214.492 134.942C214.689 135.192 214.739 135.529 214.622 135.825L211.065 144.827C210.931 145.169 210.601 145.357 210.235 145.357ZM208.793 137.42L210.303 141.927L212.386 136.635C211.356 136.818 209.976 137.092 208.793 137.42Z" fill="#161616"/>
<path d="M225.483 136.138L223.212 143.937L219.298 135.048C219.298 135.048 223.128 135.446 225.483 136.138Z" fill="#F9FCF7"/>
<path d="M223.211 144.83C222.859 144.83 222.537 144.622 222.394 144.297L218.481 135.407C218.353 135.116 218.389 134.779 218.577 134.522C218.764 134.264 219.071 134.126 219.391 134.159C219.55 134.176 223.329 134.574 225.735 135.28C226.207 135.419 226.478 135.914 226.341 136.387L224.069 144.187C223.964 144.547 223.644 144.803 223.27 144.828C223.25 144.829 223.231 144.83 223.211 144.83ZM220.749 136.127L223.04 141.332L224.369 136.769C223.174 136.488 221.785 136.27 220.749 136.127Z" fill="#161616"/>
<path d="M218.282 192.731C210.932 192.731 207.217 189.478 205.396 186.75C203.422 183.793 203.21 180.851 203.202 180.728C203.187 180.49 203.267 180.256 203.425 180.078C203.583 179.899 203.806 179.792 204.044 179.779L231.904 178.241C232.357 178.209 232.769 178.545 232.837 179.002C232.868 179.213 233.564 184.228 230.283 188.186C227.958 190.991 224.274 192.513 219.333 192.71C218.975 192.724 218.624 192.731 218.282 192.731ZM205.113 181.508C205.619 184.11 208.042 191.366 219.262 190.925C223.676 190.749 226.921 189.444 228.908 187.047C230.97 184.56 231.166 181.503 231.127 180.073L205.113 181.508Z" fill="#161616"/>
<path d="M216.302 133.369C212.506 133.369 209.351 132.292 206.909 130.158C202.498 126.304 202.058 120.435 202.041 120.187C202.008 119.696 202.381 119.27 202.872 119.237C203.362 119.209 203.789 119.576 203.823 120.067C203.859 120.571 204.835 132.404 217.627 131.538C228.006 130.834 228.125 122.691 228.125 122.345C228.125 121.852 228.525 121.452 229.018 121.452C229.511 121.452 229.911 121.852 229.911 122.345C229.911 125.855 227.369 132.666 217.748 133.319C217.257 133.352 216.775 133.369 216.302 133.369Z" fill="#161616"/>
<path d="M210.478 136.863C210.466 136.863 210.454 136.863 210.441 136.862C209.948 136.842 209.565 136.426 209.586 135.934L209.728 132.44C209.748 131.947 210.165 131.562 210.657 131.584C211.15 131.604 211.533 132.02 211.512 132.512L211.37 136.006C211.35 136.487 210.955 136.863 210.478 136.863Z" fill="#161616"/>
<path d="M221.813 135.405C221.371 135.405 220.987 135.076 220.928 134.625L220.595 132.035C220.532 131.545 220.878 131.098 221.367 131.035C221.851 130.971 222.303 131.318 222.366 131.807L222.7 134.398C222.762 134.887 222.417 135.335 221.928 135.397C221.89 135.402 221.851 135.405 221.813 135.405Z" fill="#161616"/>
<path d="M216.964 166.25C216.471 166.25 216.071 165.85 216.071 165.357V135C216.071 134.507 216.471 134.107 216.964 134.107C217.457 134.107 217.857 134.507 217.857 135V165.357C217.857 165.85 217.457 166.25 216.964 166.25Z" fill="#161616"/>
<path d="M200.679 140.384C200.523 140.384 200.365 140.344 200.222 140.258L186.137 131.85C185.862 131.686 185.697 131.388 185.702 131.068C185.707 130.748 185.883 130.456 186.163 130.302L201.155 122.037C201.587 121.799 202.13 121.956 202.368 122.388C202.606 122.82 202.449 123.363 202.017 123.601L188.388 131.114L201.137 138.725C201.561 138.977 201.699 139.525 201.446 139.949C201.279 140.229 200.983 140.384 200.679 140.384Z" fill="#161616"/>
<path d="M198.098 155.908C197.92 155.908 197.74 155.855 197.583 155.744L171.664 137.385C171.626 137.358 171.589 137.327 171.555 137.293C171.348 137.091 166.53 132.274 168.883 127.335C171.071 122.745 192.81 113.263 195.281 112.196C195.732 112.001 196.259 112.21 196.455 112.663C196.65 113.115 196.441 113.641 195.988 113.836C195.929 113.862 189.975 116.435 183.846 119.511C172.865 125.023 170.851 127.356 170.495 128.104C168.787 131.688 172.316 135.513 172.761 135.974L198.615 154.287C199.017 154.572 199.112 155.129 198.827 155.531C198.653 155.777 198.378 155.908 198.098 155.908Z" fill="#161616"/>
<path d="M173.183 138.26C172.848 138.26 172.526 138.07 172.374 137.746C172.165 137.299 172.357 136.768 172.804 136.559L186.216 130.275C186.663 130.066 187.195 130.259 187.403 130.705C187.612 131.151 187.42 131.683 186.973 131.892L173.561 138.175C173.439 138.233 173.31 138.26 173.183 138.26Z" fill="#161616"/>
<path d="M181.022 143.812C180.769 143.812 180.518 143.706 180.341 143.497C180.022 143.121 180.068 142.558 180.444 142.239L190.93 133.335C191.306 133.016 191.869 133.062 192.188 133.438C192.508 133.814 192.462 134.377 192.086 134.697L181.6 143.6C181.432 143.742 181.227 143.812 181.022 143.812Z" fill="#161616"/>
<path d="M234.91 139.519C234.607 139.519 234.31 139.364 234.143 139.084C233.89 138.66 234.029 138.112 234.452 137.859L247.201 130.249L233.572 122.735C233.14 122.497 232.984 121.954 233.222 121.523C233.46 121.091 234.003 120.934 234.434 121.172L249.426 129.437C249.706 129.591 249.882 129.883 249.888 130.203C249.893 130.523 249.728 130.821 249.453 130.985L235.367 139.393C235.224 139.478 235.067 139.519 234.91 139.519Z" fill="#161616"/>
<path d="M237.492 155.043C237.212 155.043 236.937 154.912 236.763 154.667C236.478 154.264 236.573 153.707 236.975 153.422L262.829 135.109C263.269 134.65 266.796 130.808 265.095 127.238C264.739 126.491 262.725 124.158 251.744 118.647C245.615 115.57 239.661 112.997 239.602 112.971C239.149 112.776 238.94 112.251 239.135 111.798C239.331 111.345 239.857 111.136 240.309 111.332C242.78 112.398 264.519 121.88 266.707 126.47C269.06 131.409 264.242 136.226 264.036 136.428C264.002 136.462 263.965 136.493 263.926 136.52L238.008 154.879C237.85 154.99 237.671 155.043 237.492 155.043Z" fill="#161616"/>
<path d="M262.406 137.395C262.28 137.395 262.151 137.368 262.028 137.31L248.616 131.026C248.17 130.818 247.977 130.286 248.186 129.839C248.395 129.393 248.926 129.2 249.374 129.41L262.786 135.694C263.232 135.903 263.425 136.434 263.215 136.881C263.064 137.205 262.742 137.395 262.406 137.395Z" fill="#161616"/>
<path d="M254.568 142.948C254.363 142.948 254.158 142.878 253.99 142.735L243.504 133.832C243.128 133.513 243.082 132.949 243.402 132.573C243.721 132.198 244.284 132.152 244.66 132.47L255.146 141.374C255.522 141.693 255.568 142.257 255.248 142.633C255.072 142.841 254.82 142.948 254.568 142.948Z" fill="#161616"/>
<path d="M218.731 123.898C206.636 123.898 196.796 115.639 196.796 105.487C196.796 95.3345 206.636 87.0752 218.731 87.0752C230.826 87.0752 240.666 95.3345 240.666 105.487C240.666 115.639 230.826 123.898 218.731 123.898ZM218.731 88.8609C207.621 88.8609 198.582 96.3195 198.582 105.487C198.582 114.654 207.621 122.113 218.731 122.113C229.841 122.113 238.88 114.654 238.88 105.487C238.88 96.3191 229.842 88.8609 218.731 88.8609Z" fill="#161616"/>
<path d="M219.28 116.134C216.363 116.134 213.493 115.206 211.197 113.521C208.548 111.577 206.877 108.761 206.614 105.795C206.372 103.069 207.308 100.444 209.251 98.4032C211.418 96.125 214.648 94.8179 218.112 94.8179C221.028 94.8179 223.899 95.7457 226.195 97.4304C228.844 99.3743 230.515 102.19 230.778 105.156C231.02 107.882 230.083 110.507 228.141 112.548C225.973 114.827 222.743 116.134 219.28 116.134ZM218.112 96.6039C215.135 96.6039 212.377 97.7086 210.545 99.6343C208.961 101.298 208.197 103.429 208.393 105.637C208.611 108.092 210.018 110.441 212.254 112.081C214.246 113.543 216.741 114.348 219.281 114.348C222.257 114.348 225.015 113.243 226.848 111.317C228.431 109.653 229.195 107.521 228.999 105.314C228.781 102.859 227.374 100.51 225.139 98.87C223.147 97.4089 220.651 96.6039 218.112 96.6039Z" fill="#161616"/>
<path d="M222.076 114.137C219.043 114.137 215.959 113.099 213.391 111.215C210.466 109.068 208.635 106.116 208.369 103.116C208.171 100.882 208.886 98.7862 210.384 97.213C212.089 95.4212 214.645 94.4344 217.581 94.4344C220.614 94.4344 223.699 95.4719 226.266 97.3562C229.191 99.503 231.022 102.454 231.288 105.454C231.487 107.688 230.771 109.784 229.274 111.358C227.569 113.15 225.012 114.137 222.076 114.137ZM217.581 96.2205C215.138 96.2205 213.041 97.0102 211.677 98.4444C210.522 99.658 209.993 101.219 210.148 102.958C210.369 105.447 211.936 107.932 214.448 109.776C216.711 111.436 219.42 112.351 222.076 112.351C224.519 112.351 226.616 111.561 227.981 110.127C229.135 108.913 229.664 107.352 229.509 105.613C229.289 103.124 227.721 100.639 225.209 98.7962C222.946 97.1352 220.237 96.2205 217.581 96.2205Z" fill="#161616"/>
<path d="M216.786 128.214H214.8C214.524 128.214 214.263 128.086 214.094 127.868C213.924 127.65 213.866 127.366 213.935 127.098L214.568 124.648C214.691 124.17 215.177 123.884 215.656 124.006C216.133 124.13 216.42 124.616 216.297 125.094L215.952 126.429H216.786C217.279 126.429 217.678 126.828 217.678 127.321C217.678 127.815 217.279 128.214 216.786 128.214Z" fill="#161616"/>
<path d="M219.87 129.605C220.015 130.394 223.741 129.485 224.252 128.06C224.762 126.635 222.264 125.486 221.191 125.918C220.116 126.35 219.514 127.67 219.87 129.605Z" fill="#161616"/>
<path d="M79.1996 219.183C79.6378 220.386 79.0171 221.717 77.8142 222.154C76.6107 222.592 75.2803 221.971 74.8424 220.768L37.4517 118.009C37.0128 116.807 37.6335 115.476 38.8364 115.038C40.0396 114.601 41.3707 115.221 41.8078 116.424L79.1996 219.183Z" fill="#DEE5DC"/>
<path d="M77.0217 223.188C75.6767 223.188 74.4635 222.338 74.0035 221.074L36.6128 118.315C36.3192 117.51 36.3563 116.638 36.7188 115.861C37.0813 115.083 37.7249 114.493 38.5313 114.199C38.8853 114.07 39.2549 114.005 39.6292 114.005C40.9749 114.005 42.1874 114.855 42.647 116.119L80.0385 218.878C80.3317 219.684 80.2938 220.556 79.9313 221.333C79.5685 222.11 78.9253 222.7 78.1192 222.993C77.7649 223.122 77.396 223.188 77.0217 223.188ZM39.6292 115.791C39.4635 115.791 39.2995 115.82 39.1417 115.878C38.7838 116.008 38.4981 116.27 38.3374 116.615C38.177 116.959 38.1603 117.346 38.2906 117.703L75.6813 220.463C75.8856 221.024 76.4245 221.402 77.0217 221.402C77.1874 221.402 77.3513 221.373 77.5092 221.315C77.8663 221.185 78.152 220.924 78.3128 220.579C78.4738 220.234 78.4906 219.847 78.3603 219.489L40.9688 116.73C40.7649 116.168 40.2267 115.791 39.6292 115.791Z" fill="#161616"/>
<path d="M42.6384 135.369L48.8348 132.9C48.8348 132.9 43.4363 102.64 34.6331 103.449C25.8288 104.258 42.6384 135.369 42.6384 135.369Z" fill="#1D5E73"/>
<path d="M76.1112 211.26C76.1112 211.26 81.8208 222.002 89.269 220.865C96.0854 219.822 105.895 250.737 105.895 250.737C105.895 250.737 104.312 255.425 102.808 251.86C101.306 248.295 93.149 230.252 90.6222 230.651C88.0954 231.051 97.1269 253.759 97.1269 253.759C97.1269 253.759 96.8969 259.909 94.0929 256.158C91.289 252.407 84.9469 232.717 82.1569 233.526C79.3679 234.336 88.3115 258.425 88.3115 258.425C88.3115 258.425 87.714 262.923 85.5737 260.43C83.434 257.938 76.2429 234.788 72.8983 236.896C70.4076 238.464 78.1176 260.845 78.1176 260.845C78.1176 260.845 78.5751 268.883 75.0276 261.958C73.3804 258.743 63.7822 239.203 65.5847 230.923C66.5079 226.68 75.1076 226.018 71.9362 212.781L76.1112 211.26Z" fill="white"/>
<path d="M77.2646 265.664C76.3118 265.664 75.4336 264.708 74.2332 262.364C73.0543 260.065 62.7743 239.636 64.7125 230.732C65.0607 229.131 66.2482 228.018 67.5053 226.84C70.0089 224.494 73.1243 221.573 71.0678 212.989C70.9621 212.547 71.2046 212.097 71.6307 211.941L75.8057 210.421C76.2236 210.27 76.6903 210.448 76.8993 210.841C76.9486 210.933 81.8828 220.057 88.1589 220.057C88.4839 220.057 88.8118 220.032 89.1339 219.982C89.29 219.959 89.4503 219.946 89.61 219.946C94.4461 219.946 99.4703 231.604 101.121 235.435C104.324 242.864 106.722 250.392 106.746 250.467C106.803 250.648 106.801 250.843 106.74 251.023C106.429 251.945 105.541 254.091 104.034 254.091H104.033C102.779 254.091 102.181 252.674 101.985 252.208C97.3918 241.307 92.7161 233.336 91.0443 231.794C91.0528 234.464 94.4703 244.666 97.9561 253.43C98.0018 253.545 98.0232 253.669 98.0186 253.794C97.9796 254.842 97.6939 258.264 95.6664 258.264C94.9057 258.265 94.1786 257.765 93.3775 256.694C92.2339 255.164 90.6743 251.463 88.8682 247.179C87.1368 243.071 83.9921 235.609 82.5161 234.513C82.0589 236.84 85.4975 248.281 89.1482 258.115C89.1989 258.252 89.2153 258.399 89.1964 258.543C89.0861 259.372 88.585 262.076 86.7586 262.076C86.7582 262.076 86.7582 262.076 86.7582 262.076C86.1196 262.076 85.5107 261.729 84.8961 261.013C84.1078 260.095 83.0103 257.433 81.1382 252.807C79.7518 249.382 78.1807 245.5 76.6828 242.475C74.5986 238.267 73.6164 237.732 73.4 237.664C72.745 239.041 74.65 248.038 78.9614 260.554C78.9882 260.632 79.0043 260.712 79.0089 260.795C79.0675 261.824 79.1103 264.315 78.2482 265.228C77.9825 265.509 77.6328 265.664 77.2646 265.664ZM72.9807 213.35C74.9007 222.355 71.3432 225.69 68.7264 228.142C67.5875 229.21 66.6875 230.054 66.4571 231.112C64.6203 239.551 75.3639 260.656 75.8225 261.55C76.4182 262.713 76.8328 263.307 77.0864 263.607C77.2132 263.028 77.2778 261.991 77.2328 261.015C76.9436 260.168 75.1893 254.984 73.7143 249.698C70.3028 237.475 71.6821 236.607 72.4228 236.14C72.71 235.96 73.0239 235.868 73.3553 235.868C75.7968 235.868 78.2403 240.887 82.7939 252.137C84.1811 255.564 85.6153 259.109 86.2514 259.849C86.5071 260.146 86.6689 260.245 86.7364 260.277C86.9625 260.087 87.2596 259.286 87.3939 258.518C85.3975 253.124 79.4696 236.506 81.0096 233.447C81.2618 232.946 81.6375 232.747 81.9082 232.669C82.045 232.629 82.1864 232.609 82.3296 232.609C84.4357 232.609 86.5393 237.052 90.5146 246.484C92.2021 250.487 93.7957 254.269 94.8086 255.624C95.2411 256.202 95.5118 256.393 95.625 256.453C95.8886 256.145 96.16 254.999 96.2261 253.908C95.8468 252.947 94.0336 248.313 92.375 243.5C88.505 232.269 89.2128 231.026 89.5532 230.429C89.76 230.065 90.0903 229.831 90.4832 229.769C90.5564 229.757 90.6307 229.751 90.7078 229.751C91.8621 229.751 93.5425 230.935 97.9771 239.52C100.64 244.676 103.011 250.041 103.632 251.514C103.82 251.959 103.971 252.167 104.056 252.259C104.305 252.049 104.692 251.384 104.953 250.718C101.329 239.385 94.0486 221.732 89.6114 221.732C89.5418 221.732 89.4721 221.737 89.405 221.748C88.9939 221.811 88.5753 221.842 88.1603 221.842C81.8457 221.842 77.0696 214.647 75.7096 212.357L72.9807 213.35Z" fill="#161616"/>
<path d="M41.2228 259.122L45.1571 257.368C45.1571 257.368 48.1846 263.839 49.3946 265.195C50.6053 266.551 62.5 278.353 51.8532 280.785C51.8532 280.785 48.4232 281.564 45.9364 274.157C43.4496 266.75 41.2228 259.122 41.2228 259.122Z" fill="#161616"/>
<path d="M45.4339 257.953L45.1107 257.315L41.8457 250.889C41.8457 250.889 29.4322 244.888 32.0704 236.804C34.7086 228.719 46.3647 221.752 56.3436 227.282C56.3436 227.282 43.165 212.462 28.7607 228.987C14.5064 245.341 38.345 256.412 38.345 256.412C38.345 256.412 40.4643 256.573 41.2232 259.122L45.4339 257.953Z" fill="#DEE5DC"/>
<path d="M41.2225 260.015C40.8372 260.015 40.4825 259.763 40.3668 259.377C39.79 257.439 38.2918 257.303 38.2764 257.302C38.1697 257.293 38.0654 257.266 37.9686 257.221C37.4643 256.987 25.5957 251.378 23.6029 242.007C22.6429 237.493 24.1514 232.914 28.0872 228.399C32.7839 223.011 37.8714 220.279 43.2093 220.279C50.8393 220.279 56.245 225.857 56.9418 226.612C57.1268 226.775 57.2432 227.014 57.2432 227.281C57.2432 227.773 56.8454 228.172 56.3536 228.174C56.2018 228.178 56.05 228.139 55.9107 228.062C53.6711 226.821 51.2532 226.192 48.7236 226.192C41.0547 226.192 34.6657 231.728 32.9193 237.079C30.5547 244.326 42.1179 250.028 42.2347 250.084C42.41 250.169 42.5536 250.31 42.6418 250.483L46.2304 257.548C46.3515 257.786 46.359 258.067 46.2515 258.312C46.1432 258.557 45.9314 258.74 45.6732 258.812L41.4622 259.981C41.3818 260.004 41.3018 260.015 41.2225 260.015ZM38.6086 255.547C39.1815 255.646 40.8465 256.096 41.7665 258.044L44.1443 257.383L41.1829 251.554C39.26 250.566 28.5714 244.648 31.2214 236.526C33.4393 229.73 41.1268 224.406 48.7236 224.406C49.7275 224.406 50.7154 224.494 51.684 224.67C49.5093 223.324 46.575 222.065 43.2093 222.065C38.4107 222.065 33.7761 224.59 29.4336 229.573C25.8882 233.64 24.5143 237.697 25.3486 241.631C27.0554 249.673 37.4072 254.959 38.6086 255.547Z" fill="#161616"/>
<path d="M280.626 206.619C280.626 206.619 279.493 208.472 282.068 208.851L279.335 226.776C279.335 226.776 277.885 232.711 282.89 232.747C287.895 232.783 312.19 233.311 312.19 233.311L315.61 197.045L282.585 197.532L280.626 206.619Z" fill="#F7F9F7"/>
<path d="M323.863 229.191L317.868 197.169L315.61 197.045L313.246 222.12L312.901 234.429L323.863 229.191Z" fill="#F7F9F7"/>
<path d="M312.191 234.286C312.184 234.286 312.178 234.286 312.171 234.286C311.928 234.286 287.825 233.717 282.883 233.681C281.289 233.67 280.071 233.118 279.263 232.081C277.733 230.117 278.363 227.036 278.458 226.618L281.062 209.529C280.389 209.29 279.923 208.897 279.672 208.361C279.27 207.503 279.613 206.639 279.785 206.297L281.717 198.393C281.834 197.914 282.319 197.62 282.796 197.737C283.275 197.854 283.569 198.337 283.452 198.816L281.493 206.831C281.471 206.92 281.435 207.006 281.387 207.085C281.313 207.213 281.231 207.481 281.29 207.602C281.345 207.717 281.617 207.882 282.198 207.968C282.433 208.003 282.644 208.129 282.786 208.32C282.927 208.511 282.986 208.751 282.951 208.986L280.218 226.911C280.214 226.937 280.209 226.963 280.203 226.988C280.03 227.705 279.778 229.821 280.674 230.966C281.136 231.556 281.863 231.847 282.896 231.854C287.325 231.886 307.071 232.307 311.379 232.4L314.72 196.961C314.765 196.483 315.176 196.119 315.658 196.153L317.917 196.277C318.328 196.299 318.67 196.6 318.745 197.004L324.74 229.027C324.818 229.442 324.594 229.855 324.203 230.016L315.504 233.606C315.049 233.794 314.526 233.577 314.338 233.121C314.15 232.665 314.367 232.143 314.823 231.955L322.851 228.643L317.119 198.022L316.417 197.984L313.078 233.435C313.036 233.895 312.65 234.286 312.191 234.286Z" fill="#161616"/>
<path d="M323.864 230.085C323.775 230.085 323.686 230.072 323.598 230.044L312.635 226.626C312.164 226.48 311.901 225.979 312.048 225.508C312.195 225.037 312.696 224.776 313.166 224.921L324.129 228.339C324.6 228.486 324.863 228.986 324.716 229.457C324.596 229.84 324.244 230.085 323.864 230.085Z" fill="#161616"/>
<path d="M277.22 197.857C276.918 197.857 276.637 197.742 276.472 197.489C276.307 197.236 276.281 196.935 276.403 196.659L280.926 186.416C281.069 186.09 281.408 185.888 281.75 185.888L316.403 186.159C316.668 186.162 316.918 186.283 317.087 186.488C317.255 186.693 317.323 186.963 317.273 187.223L315.355 197.153C315.274 197.572 314.907 197.839 314.48 197.84L277.221 197.857C277.22 197.857 277.22 197.857 277.22 197.857ZM282.322 187.683L278.59 196.143L313.741 196.092L315.316 187.939L282.322 187.683Z" fill="#161616"/>
<path d="M315.729 197.052L317.868 197.169L316.395 187.055L315.729 197.052Z" fill="#161616"/>
<path d="M317.868 198.062C317.852 198.062 317.836 198.062 317.819 198.061L315.68 197.943C315.442 197.931 315.218 197.822 315.06 197.644C314.902 197.465 314.822 197.231 314.838 196.993L315.505 186.996C315.535 186.54 315.905 186.181 316.361 186.163C316.825 186.148 317.213 186.475 317.279 186.926L318.751 197.041C318.79 197.306 318.708 197.574 318.527 197.772C318.357 197.957 318.118 198.062 317.868 198.062ZM316.68 196.21L316.827 196.218L316.726 195.52L316.68 196.21Z" fill="#161616"/>
<path d="M295.231 225.12C295.189 225.12 295.146 225.118 295.103 225.111C294.626 225.044 294.289 224.609 294.342 224.129C294.353 224.03 295.402 214.191 291.943 209.878C291.634 209.494 291.696 208.932 292.081 208.623C292.466 208.314 293.027 208.377 293.336 208.761C295.31 211.223 296.014 215.038 296.22 218.277C297.344 215.924 299.058 213.589 301.579 212.859C302.053 212.721 302.548 212.995 302.685 213.468C302.822 213.942 302.549 214.437 302.076 214.574C299.827 215.225 298.336 217.794 297.48 219.833C296.504 222.161 296.113 224.36 296.109 224.381C296.033 224.814 295.657 225.12 295.231 225.12Z" fill="#1D5E73"/>
<path d="M286.941 201.749C286.941 201.749 287.052 217.918 294.287 212.799C299.48 209.126 290.316 202.396 286.941 201.749Z" fill="#1D5E73"/>
<path d="M299.48 214.884C299.447 215.022 305.397 218.406 307.5 210.644C307.5 210.644 301.325 207.157 299.48 214.884Z" fill="#1D5E73"/>
<path d="M280 194.285H278.929C278.435 194.285 278.036 193.886 278.036 193.393C278.036 192.899 278.435 192.5 278.929 192.5H280C280.493 192.5 280.893 192.899 280.893 193.393C280.893 193.886 280.493 194.285 280 194.285Z" fill="#161616"/>
<path d="M310.357 194.286H307.857C307.364 194.286 306.964 193.886 306.964 193.393C306.964 192.9 307.364 192.5 307.857 192.5H310.357C310.85 192.5 311.25 192.9 311.25 193.393C311.25 193.886 310.85 194.286 310.357 194.286ZM304.286 194.286H301.786C301.292 194.286 300.893 193.886 300.893 193.393C300.893 192.9 301.292 192.5 301.786 192.5H304.286C304.779 192.5 305.179 192.9 305.179 193.393C305.179 193.886 304.779 194.286 304.286 194.286ZM298.214 194.286H295.714C295.221 194.286 294.821 193.886 294.821 193.393C294.821 192.9 295.221 192.5 295.714 192.5H298.214C298.707 192.5 299.107 192.9 299.107 193.393C299.107 193.886 298.707 194.286 298.214 194.286ZM292.143 194.286H289.643C289.15 194.286 288.75 193.886 288.75 193.393C288.75 192.9 289.15 192.5 289.643 192.5H292.143C292.636 192.5 293.036 192.9 293.036 193.393C293.036 193.886 292.636 194.286 292.143 194.286ZM286.071 194.286H283.571C283.078 194.286 282.679 193.886 282.679 193.393C282.679 192.9 283.078 192.5 283.571 192.5H286.071C286.565 192.5 286.964 192.9 286.964 193.393C286.964 193.886 286.565 194.286 286.071 194.286Z" fill="#161616"/>
<path d="M315.357 194.286H313.929C313.435 194.286 313.036 193.886 313.036 193.393C313.036 192.9 313.435 192.5 313.929 192.5H315.357C315.85 192.5 316.25 192.9 316.25 193.393C316.25 193.886 315.85 194.286 315.357 194.286Z" fill="#161616"/>
<path d="M308.27 133.884L299.855 161.783C299.855 161.783 296.501 170.993 304.775 172.614C313.048 174.235 328.279 175.66 338.354 172.084C338.354 172.084 343.853 170.664 341.921 161.569C339.989 152.474 337.085 134.553 337.085 134.553C337.085 134.553 333.573 126.622 322.026 126.225C310.481 125.829 308.27 133.884 308.27 133.884Z" fill="#1D5E73"/>
<path d="M324.499 137.447C315.852 137.447 308.702 134.71 308.275 134.543C307.815 134.364 307.589 133.847 307.767 133.387C307.947 132.928 308.466 132.702 308.924 132.88C309.068 132.936 323.541 138.463 335.795 133.699C336.256 133.52 336.772 133.748 336.951 134.207C337.13 134.667 336.902 135.184 336.442 135.363C332.472 136.907 328.337 137.447 324.499 137.447Z" fill="#161616"/>
<path d="M328.3 128.792C328.217 128.792 328.131 128.78 328.047 128.755C327.574 128.615 327.304 128.119 327.444 127.646C327.449 127.627 328.06 125.444 326.971 123.85C326.27 122.823 324.978 122.216 323.131 122.046C321.135 121.863 319.676 122.221 318.796 123.114C317.658 124.27 317.812 126.025 317.814 126.043C317.867 126.533 317.512 126.973 317.022 127.026C316.532 127.083 316.091 126.724 316.039 126.234C316.027 126.129 315.78 123.632 317.524 121.861C318.797 120.568 320.742 120.031 323.294 120.268C325.705 120.49 327.441 121.361 328.455 122.857C330.015 125.158 329.192 128.03 329.156 128.151C329.041 128.54 328.686 128.792 328.3 128.792Z" fill="#161616"/>
<path d="M341.922 162.462C341.675 162.462 341.429 162.36 341.253 162.161C340.926 161.791 340.961 161.227 341.33 160.9L352.758 150.796C352.8 150.759 352.844 150.727 352.891 150.698C353.014 150.624 355.953 148.788 355.241 145.424C354.57 142.253 350.793 142.909 350.633 142.938C350.573 142.949 350.509 142.953 350.451 142.953L338.312 142.671C337.818 142.659 337.428 142.251 337.44 141.757C337.451 141.264 337.856 140.873 338.353 140.886L350.405 141.166C352.383 140.835 356.18 141.234 356.988 145.055C357.758 148.694 355.336 151.279 353.883 152.186L342.514 162.238C342.343 162.388 342.132 162.462 341.922 162.462Z" fill="#161616"/>
<path d="M342.781 157.292C342.532 157.292 342.285 157.189 342.108 156.986C341.784 156.615 341.822 156.051 342.194 155.727L348.568 150.165C348.606 150.132 348.647 150.102 348.69 150.076C348.745 150.041 350.148 149.137 349.813 147.554C349.527 146.203 347.892 146.418 347.705 146.447C347.653 146.455 347.594 146.458 347.542 146.458L340.728 146.3C340.235 146.289 339.845 145.88 339.856 145.386C339.867 144.894 340.283 144.502 340.77 144.515L347.506 144.671C348.736 144.496 351.057 144.804 351.561 147.185C352.108 149.772 350.123 151.265 349.696 151.552L343.368 157.073C343.199 157.22 342.99 157.292 342.781 157.292Z" fill="#161616"/>
<path d="M299.855 162.676C299.514 162.676 299.188 162.479 299.04 162.147L286.84 134.823C286.66 134.42 286.803 133.945 287.175 133.707L290.219 131.763C290.558 131.547 290.997 131.583 291.295 131.85L304.689 143.842C305.056 144.171 305.088 144.735 304.759 145.103C304.43 145.47 303.865 145.501 303.498 145.172L290.609 133.633L288.785 134.798L300.671 161.42C300.871 161.87 300.67 162.398 300.219 162.599C300.101 162.651 299.977 162.676 299.855 162.676Z" fill="#161616"/>
<path d="M279.467 134.26C278.291 134.26 277.712 133.781 277.433 133.379C276.969 132.71 276.762 131.461 278.411 129.312C279.497 127.897 281.169 126.374 283.117 125.023C286.027 123.007 289.01 121.755 290.904 121.755C292.08 121.755 292.659 122.234 292.937 122.636C294.358 124.687 290.986 128.405 287.253 130.993C284.343 133.008 281.36 134.26 279.467 134.26ZM290.903 123.541C289.653 123.541 287.075 124.453 284.134 126.491C282.334 127.739 280.804 129.127 279.828 130.399C278.835 131.693 278.855 132.297 278.9 132.362C278.916 132.385 279.065 132.475 279.466 132.475C280.716 132.475 283.294 131.563 286.236 129.524C290.359 126.667 291.739 124.043 291.469 123.653C291.454 123.631 291.305 123.541 290.903 123.541Z" fill="#161616"/>
<path d="M283.843 136.331C280.312 136.331 278.195 133.912 278.165 133.876C277.845 133.5 277.89 132.937 278.266 132.617C278.641 132.297 279.204 132.342 279.525 132.718C279.664 132.878 283.047 136.659 288.541 132.852C294.101 128.998 291.521 123.771 291.408 123.551C291.184 123.111 291.358 122.574 291.797 122.349C292.238 122.126 292.775 122.3 292.998 122.739C294.197 125.089 295.021 130.533 289.558 134.319C287.397 135.817 285.47 136.331 283.843 136.331Z" fill="#161616"/>
<path d="M336.118 160.06C335.693 160.06 335.316 159.755 335.24 159.322L331.859 140.173C331.773 139.687 332.097 139.224 332.583 139.138C333.067 139.053 333.531 139.377 333.617 139.862L336.998 159.011C337.084 159.497 336.76 159.96 336.274 160.046C336.222 160.055 336.17 160.06 336.118 160.06Z" fill="#DEE5DC"/>
<path d="M337.737 167.321C337.324 167.321 336.952 167.032 336.864 166.611L336.317 163.992C336.216 163.509 336.525 163.036 337.008 162.935C337.492 162.836 337.964 163.143 338.065 163.626L338.612 166.245C338.713 166.728 338.404 167.201 337.921 167.302C337.859 167.315 337.798 167.321 337.737 167.321Z" fill="#DEE5DC"/>
<path d="M368.117 315.416C367.714 315.416 367.358 315.145 367.255 314.752L349.017 245.969C348.948 245.707 349.002 245.426 349.164 245.208C349.326 244.99 349.579 244.858 349.851 244.848L400.089 243.155C400.501 243.134 400.875 243.416 400.982 243.819L419.077 312.211C419.146 312.473 419.093 312.752 418.933 312.969C418.772 313.187 418.522 313.32 418.251 313.332L368.155 315.415C368.142 315.416 368.13 315.416 368.117 315.416ZM351.031 246.595L368.797 313.602L417.066 311.594L399.437 244.964L351.031 246.595Z" fill="#161616"/>
<path d="M361.071 330.296C360.666 330.296 360.31 330.023 360.207 329.629L344.974 271.177C344.943 271.057 344.937 270.932 344.957 270.81L348.999 245.824C349.078 245.337 349.535 245.004 350.023 245.085C350.51 245.164 350.84 245.622 350.761 246.109L346.749 270.909L361.754 328.485L410.15 326.72L417.414 312.044C417.632 311.602 418.167 311.42 418.61 311.64C419.052 311.858 419.233 312.394 419.014 312.836L411.514 327.989C411.369 328.283 411.075 328.473 410.747 328.485L361.104 330.296C361.093 330.296 361.081 330.296 361.071 330.296Z" fill="#161616"/>
<path d="M361.07 330.297C360.943 330.297 360.812 330.269 360.689 330.211C360.244 329.999 360.053 329.467 360.264 329.021L367.31 314.141C367.522 313.696 368.054 313.506 368.5 313.717C368.945 313.928 369.135 314.46 368.924 314.906L361.878 329.786C361.725 330.108 361.405 330.297 361.07 330.297Z" fill="#161616"/>
<path d="M367.976 266.454C373.564 266.454 378.095 262.669 378.095 258.001C378.095 253.333 373.564 249.549 367.976 249.549C362.387 249.549 357.857 253.333 357.857 258.001C357.857 262.669 362.387 266.454 367.976 266.454Z" fill="#161616"/>
<path d="M391.19 266.454C396.779 266.454 401.309 262.669 401.309 258.001C401.309 253.333 396.779 249.549 391.19 249.549C385.602 249.549 381.071 253.333 381.071 258.001C381.071 262.669 385.602 266.454 391.19 266.454Z" fill="#161616"/>
<path d="M373.69 286.096C379.278 286.096 383.809 282.312 383.809 277.644C383.809 272.976 379.278 269.192 373.69 269.192C368.101 269.192 363.571 272.976 363.571 277.644C363.571 282.312 368.101 286.096 373.69 286.096Z" fill="#161616"/>
<path d="M396.904 286.096C402.493 286.096 407.023 282.312 407.023 277.644C407.023 272.976 402.493 269.192 396.904 269.192C391.316 269.192 386.785 272.976 386.785 277.644C386.785 282.312 391.316 286.096 396.904 286.096Z" fill="#161616"/>
<path d="M377.976 307.168C383.564 307.168 388.095 303.384 388.095 298.716C388.095 294.048 383.564 290.264 377.976 290.264C372.387 290.264 367.857 294.048 367.857 298.716C367.857 303.384 372.387 307.168 377.976 307.168Z" fill="#161616"/>
<path d="M401.19 307.168C406.779 307.168 411.309 303.384 411.309 298.716C411.309 294.048 406.779 290.263 401.19 290.263C395.602 290.263 391.071 294.048 391.071 298.716C391.071 303.384 395.602 307.168 401.19 307.168Z" fill="#161616"/>
<path d="M364.4 245.966C364.4 245.966 354.286 247.976 349.048 238.333C349.048 238.333 363.562 232.884 364.4 245.966Z" fill="#588454"/>
<path d="M370.119 242.262C370.119 242.262 360.594 237.738 370 223.928C370 223.928 379.761 236.666 370.119 242.262Z" fill="#588454"/>
<path d="M367.975 258.894C367.537 258.894 367.155 258.572 367.092 258.125C366.427 253.404 363.49 241.239 357.929 241.701C357.437 241.737 357.007 241.375 356.967 240.883C356.927 240.392 357.293 239.961 357.785 239.921C366.156 239.251 368.753 257.116 368.86 257.877C368.929 258.365 368.588 258.817 368.1 258.885C368.058 258.891 368.016 258.894 367.975 258.894Z" fill="#161616"/>
<path d="M370.119 258.928C369.627 258.928 369.228 258.514 369.226 258.022L369.107 230.816C369.105 230.322 369.503 230 369.996 230H370C370.491 230 370.891 230.307 370.893 230.799L371.012 258.059C371.014 258.552 370.616 258.928 370.123 258.928C370.123 258.928 370.12 258.928 370.119 258.928Z" fill="#161616"/>
<path d="M367.976 258.928C367.488 258.928 367.09 258.519 367.083 258.03C367.082 257.989 367.025 255.701 365.667 251.743C365.508 251.277 365.756 250.765 366.223 250.604C366.69 250.445 367.197 250.691 367.357 251.158C368.825 255.439 368.868 257.907 368.869 258.01C368.874 258.503 368.478 258.928 367.986 258.928C367.982 258.928 367.979 258.928 367.976 258.928Z" fill="#EAEFE8"/>
<path d="M370.118 258.929C369.633 258.929 369.235 258.522 369.226 258.035L369.107 251.551C369.098 251.058 369.491 250.714 369.984 250.714C369.989 250.714 369.995 250.714 370 250.714C370.486 250.714 370.884 251.022 370.893 251.51L371.012 258.043C371.02 258.536 370.628 258.929 370.135 258.929C370.13 258.929 370.124 258.929 370.118 258.929Z" fill="#EAEFE8"/>
<path d="M388.328 245.966C388.328 245.966 378.214 247.976 372.976 238.333C372.976 238.333 387.49 232.884 388.328 245.966Z" fill="#588454"/>
<path d="M394.047 242.262C394.047 242.262 384.523 237.738 393.928 223.928C393.928 223.928 403.689 236.666 394.047 242.262Z" fill="#588454"/>
<path d="M391.903 258.894C391.465 258.894 391.083 258.571 391.02 258.125C390.355 253.404 387.406 241.239 381.857 241.701C381.364 241.736 380.935 241.375 380.895 240.883C380.855 240.392 381.222 239.961 381.713 239.921C381.868 239.908 382.023 239.902 382.174 239.902C390.172 239.902 392.683 257.13 392.788 257.877C392.857 258.365 392.517 258.817 392.028 258.885C391.986 258.891 391.944 258.894 391.903 258.894Z" fill="#161616"/>
<path d="M394.047 258.928C393.556 258.928 393.156 258.514 393.154 258.022L393.035 230.816C393.033 230.322 393.431 230 393.924 230H393.928C394.42 230 394.819 230.307 394.821 230.799L394.94 258.059C394.942 258.552 394.544 258.928 394.051 258.928C394.051 258.928 394.048 258.928 394.047 258.928Z" fill="#161616"/>
<path d="M391.904 258.928C391.416 258.928 391.018 258.519 391.011 258.03C391.011 257.989 390.953 255.701 389.596 251.743C389.436 251.277 389.684 250.765 390.151 250.604C390.618 250.445 391.125 250.691 391.285 251.158C392.753 255.439 392.796 257.907 392.797 258.01C392.802 258.503 392.407 258.928 391.914 258.928C391.911 258.928 391.907 258.928 391.904 258.928Z" fill="#EAEFE8"/>
<path d="M394.047 258.929C393.561 258.929 393.163 258.522 393.154 258.035L393.035 251.551C393.027 251.058 393.419 250.714 393.912 250.714C393.917 250.714 393.923 250.714 393.928 250.714C394.414 250.714 394.812 251.022 394.821 251.51L394.94 258.043C394.948 258.536 394.556 258.929 394.063 258.929C394.058 258.929 394.052 258.929 394.047 258.929Z" fill="#EAEFE8"/>
<path d="M368.685 267.752C368.685 267.752 358.571 269.762 353.333 260.119C353.333 260.119 367.847 254.67 368.685 267.752Z" fill="#588454"/>
<path d="M374.404 264.047C374.404 264.047 364.88 259.524 374.285 245.714C374.285 245.714 384.046 258.452 374.404 264.047Z" fill="#588454"/>
<path d="M372.26 280.68C371.822 280.68 371.44 280.357 371.377 279.911C370.712 275.19 367.763 263.029 362.214 263.487C361.723 263.521 361.292 263.16 361.252 262.669C361.213 262.177 361.579 261.746 362.07 261.706C370.447 261.027 373.039 278.902 373.145 279.663C373.214 280.151 372.874 280.603 372.386 280.671C372.343 280.677 372.301 280.68 372.26 280.68Z" fill="#161616"/>
<path d="M374.404 280.714C373.913 280.714 373.513 280.3 373.511 279.808L373.392 252.602C373.39 252.108 373.788 251.786 374.281 251.786H374.285C374.777 251.786 375.176 252.094 375.178 252.585L375.297 279.845C375.299 280.338 374.901 280.714 374.408 280.714C374.408 280.714 374.406 280.714 374.404 280.714Z" fill="#161616"/>
<path d="M372.261 280.714C371.773 280.714 371.375 280.305 371.368 279.816C371.368 279.775 371.31 277.487 369.953 273.529C369.793 273.063 370.041 272.551 370.508 272.39C370.975 272.231 371.482 272.477 371.642 272.943C373.11 277.225 373.153 279.693 373.154 279.796C373.159 280.289 372.764 280.714 372.271 280.714C372.268 280.714 372.264 280.714 372.261 280.714Z" fill="#EAEFE8"/>
<path d="M374.404 280.714C373.918 280.714 373.52 280.308 373.511 279.82L373.392 273.336C373.384 272.844 373.776 272.5 374.269 272.5C374.274 272.5 374.28 272.5 374.285 272.5C374.771 272.5 375.169 272.808 375.178 273.296L375.297 279.829C375.305 280.322 374.913 280.714 374.42 280.714C374.415 280.714 374.409 280.714 374.404 280.714Z" fill="#EAEFE8"/>
<path d="M392.614 267.752C392.614 267.752 382.5 269.762 377.262 260.119C377.262 260.119 391.776 254.67 392.614 267.752Z" fill="#588454"/>
<path d="M398.333 264.047C398.333 264.047 388.808 259.523 398.214 245.714C398.214 245.714 407.975 258.452 398.333 264.047Z" fill="#588454"/>
<path d="M396.189 280.68C395.75 280.68 395.368 280.357 395.305 279.911C394.641 275.19 391.698 263.029 386.143 263.487C385.652 263.521 385.221 263.161 385.181 262.669C385.141 262.177 385.507 261.747 385.999 261.707C394.369 261.027 396.967 278.902 397.074 279.663C397.143 280.151 396.802 280.603 396.314 280.671C396.272 280.677 396.23 280.68 396.189 280.68Z" fill="#161616"/>
<path d="M398.333 280.714C397.841 280.714 397.442 280.3 397.44 279.808L397.321 252.602C397.319 252.108 397.717 251.786 398.21 251.786H398.214C398.705 251.786 399.105 252.093 399.107 252.585L399.226 279.845C399.228 280.338 398.83 280.714 398.337 280.714C398.337 280.714 398.334 280.714 398.333 280.714Z" fill="#161616"/>
<path d="M396.189 280.714C395.702 280.714 395.304 280.305 395.297 279.816C395.296 279.775 395.239 277.487 393.881 273.529C393.722 273.063 393.97 272.551 394.437 272.39C394.904 272.231 395.411 272.477 395.571 272.944C397.039 277.225 397.082 279.693 397.083 279.796C397.088 280.289 396.692 280.714 396.199 280.714C396.196 280.714 396.193 280.714 396.189 280.714Z" fill="#EAEFE8"/>
<path d="M398.332 280.714C397.847 280.714 397.449 280.308 397.44 279.82L397.321 273.337C397.312 272.844 397.704 272.5 398.198 272.5C398.203 272.5 398.208 272.5 398.214 272.5C398.699 272.5 399.098 272.808 399.107 273.296L399.225 279.829C399.234 280.322 398.842 280.714 398.349 280.714C398.343 280.714 398.338 280.714 398.332 280.714Z" fill="#EAEFE8"/>
<path d="M374.043 288.109C374.043 288.109 363.928 290.119 358.691 280.476C358.691 280.476 373.205 275.028 374.043 288.109Z" fill="#588454"/>
<path d="M379.761 284.404C379.761 284.404 370.237 279.88 379.642 266.071C379.642 266.071 389.403 278.809 379.761 284.404Z" fill="#588454"/>
<path d="M377.617 301.037C377.179 301.037 376.797 300.715 376.734 300.268C376.07 295.547 373.128 283.381 367.572 283.844C367.084 283.879 366.65 283.518 366.61 283.026C366.57 282.535 366.936 282.104 367.427 282.064C367.583 282.051 367.737 282.045 367.888 282.045C375.887 282.045 378.398 299.273 378.503 300.02C378.571 300.508 378.231 300.96 377.743 301.028C377.701 301.034 377.658 301.037 377.617 301.037Z" fill="#161616"/>
<path d="M379.761 301.071C379.27 301.071 378.871 300.657 378.869 300.165L378.75 272.959C378.747 272.465 379.145 272.143 379.639 272.143H379.642C380.134 272.143 380.533 272.45 380.535 272.942L380.654 300.202C380.656 300.695 380.259 301.071 379.765 301.071C379.765 301.071 379.763 301.071 379.761 301.071Z" fill="#161616"/>
<path d="M377.618 301.071C377.13 301.071 376.732 300.662 376.726 300.173C376.725 300.132 376.667 297.844 375.31 293.886C375.15 293.42 375.398 292.908 375.865 292.747C376.332 292.588 376.84 292.834 377 293.301C378.467 297.582 378.51 300.05 378.511 300.153C378.517 300.646 378.121 301.071 377.628 301.071C377.625 301.071 377.622 301.071 377.618 301.071Z" fill="#EAEFE8"/>
<path d="M379.761 301.071C379.276 301.071 378.877 300.665 378.868 300.177L378.75 293.693C378.741 293.201 379.133 292.857 379.626 292.857C379.632 292.857 379.637 292.857 379.643 292.857C380.128 292.857 380.526 293.165 380.535 293.653L380.654 300.186C380.663 300.679 380.271 301.071 379.777 301.071C379.772 301.071 379.767 301.071 379.761 301.071Z" fill="#EAEFE8"/>
<path d="M397.971 288.109C397.971 288.109 387.857 290.119 382.619 280.476C382.619 280.476 397.133 275.028 397.971 288.109Z" fill="#588454"/>
<path d="M403.69 284.404C403.69 284.404 394.165 279.88 403.571 266.071C403.571 266.071 413.332 278.809 403.69 284.404Z" fill="#588454"/>
<path d="M401.546 301.037C401.108 301.037 400.726 300.714 400.663 300.268C399.998 295.547 397.045 283.381 391.5 283.844C391.012 283.879 390.578 283.518 390.538 283.026C390.498 282.534 390.864 282.104 391.356 282.064C399.733 281.392 402.324 299.259 402.431 300.02C402.5 300.508 402.159 300.96 401.671 301.028C401.629 301.034 401.587 301.037 401.546 301.037Z" fill="#161616"/>
<path d="M403.69 301.071C403.199 301.071 402.799 300.657 402.797 300.165L402.678 272.87C402.676 272.376 403.074 271.97 403.567 271.969C404.076 271.96 404.462 272.362 404.464 272.855L404.583 300.158C404.585 300.652 404.187 301.071 403.694 301.071C403.694 301.071 403.691 301.071 403.69 301.071Z" fill="#161616"/>
<path d="M401.547 301.071C401.059 301.071 400.661 300.662 400.654 300.173C400.653 300.132 400.596 297.844 399.238 293.886C399.079 293.42 399.327 292.908 399.794 292.747C400.262 292.588 400.768 292.834 400.928 293.301C402.396 297.582 402.439 300.05 402.44 300.153C402.445 300.646 402.05 301.071 401.557 301.071C401.553 301.071 401.55 301.071 401.547 301.071Z" fill="#EAEFE8"/>
<path d="M403.689 301.071C403.204 301.071 402.806 300.665 402.797 300.177L402.678 293.693C402.669 293.201 403.062 292.857 403.555 292.857C403.56 292.857 403.566 292.857 403.571 292.857C404.057 292.857 404.455 293.165 404.464 293.653L404.583 300.186C404.591 300.679 404.199 301.071 403.706 301.071C403.701 301.071 403.695 301.071 403.689 301.071Z" fill="#EAEFE8"/>
<path d="M130.119 227.381L122.38 231.905C122.38 231.905 120.595 234.523 120.119 237.143C119.643 239.762 117.976 246.825 117.976 246.825L124.047 253.571L154.881 251.428C154.881 251.428 163.273 241.326 162.172 234.711L138.452 236.667L130.119 227.381Z" fill="white"/>
<path d="M124.047 254.464C123.795 254.464 123.554 254.357 123.384 254.169L117.312 247.422C117.117 247.205 117.04 246.905 117.107 246.62C117.124 246.549 118.774 239.549 119.241 236.983C119.745 234.209 121.565 231.515 121.642 231.402C121.717 231.292 121.815 231.201 121.93 231.134L129.669 226.61C130.035 226.396 130.501 226.469 130.784 226.784L138.821 235.74L162.1 233.821C162.56 233.779 162.977 234.106 163.054 234.564C164.209 241.503 155.921 251.573 155.568 251.999C155.412 252.186 155.187 252.302 154.943 252.319L124.11 254.461C124.089 254.463 124.068 254.464 124.047 254.464ZM118.952 246.575L124.42 252.65L154.43 250.565C155.696 248.966 161.607 241.191 161.375 235.672L138.525 237.556C138.248 237.581 137.974 237.471 137.787 237.263L129.94 228.519L123.012 232.569C122.636 233.159 121.368 235.26 120.997 237.303C120.587 239.558 119.331 244.958 118.952 246.575Z" fill="#161616"/>
<path d="M147.262 162.563L156.071 154.792C156.071 154.792 157.261 150.167 151.666 150.798L143.214 159.134L127.055 228.333C127.055 228.333 125.118 234.127 129.166 234.682C133.214 235.238 132.5 227.381 132.5 227.381L147.262 162.563Z" fill="#DEE5DC"/>
<path d="M129.565 235.603C129.396 235.603 129.221 235.591 129.045 235.566C127.861 235.404 126.935 234.835 126.368 233.922C125.066 231.829 126.022 228.623 126.195 228.092L142.345 158.931C142.383 158.767 142.468 158.617 142.588 158.499L151.04 150.162C151.182 150.021 151.368 149.933 151.567 149.91C153.788 149.659 155.376 150.139 156.291 151.319C157.476 152.847 156.959 154.926 156.936 155.014C156.892 155.187 156.796 155.343 156.662 155.461L148.069 163.041L133.401 227.445C133.474 228.396 133.681 232.614 131.891 234.574C131.276 235.247 130.472 235.603 129.565 235.603ZM144.025 159.589L127.925 228.536C127.918 228.564 127.911 228.59 127.902 228.617C127.638 229.413 127.12 231.753 127.886 232.982C128.172 233.441 128.63 233.708 129.288 233.798C129.384 233.811 129.477 233.818 129.565 233.818H129.565C129.974 233.818 130.294 233.676 130.573 233.371C131.742 232.09 131.713 228.588 131.611 227.462C131.603 227.369 131.609 227.275 131.63 227.183L146.391 162.365C146.433 162.182 146.531 162.017 146.671 161.893L155.25 154.326C155.308 153.904 155.356 153.021 154.875 152.407C154.401 151.803 153.452 151.547 152.068 151.656L144.025 159.589Z" fill="#161616"/>
<path d="M154.882 252.321C154.851 252.321 154.82 252.32 154.789 252.316L129.551 249.723C129.305 249.697 129.08 249.571 128.931 249.373L125.88 245.339C125.755 245.174 125.692 244.972 125.7 244.765L126.153 233.276C126.172 232.783 126.582 232.405 127.08 232.419C127.573 232.438 127.957 232.853 127.937 233.346L127.497 244.517L130.121 247.986L154.972 250.54C155.463 250.591 155.819 251.029 155.769 251.52C155.722 251.979 155.334 252.321 154.882 252.321Z" fill="#161616"/>
<path d="M108.393 186.964C107.899 186.964 107.5 186.565 107.5 186.072V181.429C107.5 180.936 107.899 180.536 108.393 180.536C108.886 180.536 109.286 180.936 109.286 181.429V186.072C109.286 186.565 108.886 186.964 108.393 186.964Z" fill="#161616"/>
<path d="M105.235 188.18C104.863 188.18 104.515 187.945 104.39 187.573L103.175 183.989C103.016 183.522 103.266 183.015 103.733 182.857C104.201 182.698 104.707 182.949 104.865 183.416L106.08 187C106.238 187.467 105.988 187.974 105.522 188.132C105.427 188.164 105.33 188.18 105.235 188.18Z" fill="#161616"/>
<path d="M100.908 188.179C100.697 188.179 100.485 188.104 100.315 187.953L98.3012 186.161C97.933 185.833 97.9001 185.269 98.228 184.9C98.5551 184.532 99.1198 184.499 99.4883 184.827L101.502 186.619C101.87 186.947 101.903 187.512 101.575 187.88C101.399 188.078 101.154 188.179 100.908 188.179Z" fill="#161616"/>
<path d="M393.377 167.955C393.306 167.955 393.234 167.947 393.162 167.929C392.683 167.811 392.391 167.327 392.509 166.848L393.584 162.492C393.702 162.013 394.185 161.719 394.664 161.838C395.143 161.957 395.435 162.44 395.317 162.919L394.242 167.276C394.143 167.683 393.778 167.955 393.377 167.955Z" fill="#161616"/>
<path d="M390.46 167.434C390.067 167.434 389.707 167.173 389.599 166.775L388.831 163.943C388.702 163.467 388.983 162.976 389.459 162.847C389.933 162.72 390.426 162.999 390.555 163.476L391.323 166.308C391.452 166.784 391.171 167.274 390.694 167.403C390.617 167.424 390.538 167.434 390.46 167.434Z" fill="#161616"/>
<path d="M16.0714 90.07C16.0714 90.07 142.49 73.4518 171.15 75.6071C171.15 75.6071 82.1428 49.146 16.0714 50.2175V90.07Z" fill="#588454"/>
<path d="M-0.00111054 94.9039C-0.437896 94.9039 -0.819325 94.5835 -0.883968 94.1385C-0.954325 93.6503 -0.615755 93.1978 -0.127897 93.1271C1.29567 92.9214 142.61 72.5789 171.038 74.7167C171.53 74.7539 171.899 75.1824 171.862 75.6742C171.825 76.166 171.392 76.5307 170.904 76.4978C142.664 74.3692 1.5496 94.6892 0.127461 94.8946C0.0842468 94.9007 0.0413895 94.9039 -0.00111054 94.9039Z" fill="#161616"/>
<path d="M7.49873 76.9526C7.05694 76.9526 6.67301 76.6247 6.61408 76.1747C6.55051 75.6858 6.89552 75.3205 7.38444 75.2572C8.23623 75.1462 92.9609 63.9287 126.573 63.5715C126.58 63.5715 126.586 63.5715 126.592 63.5715C127.077 63.5715 127.474 63.8765 127.484 64.3633C127.494 64.8562 127.103 65.223 126.61 65.2326C93.0934 65.9122 8.46551 76.8551 7.61444 76.9658C7.57587 76.9708 7.53694 76.9526 7.49873 76.9526Z" fill="#161616"/>
<path d="M16.4274 62.3603C15.9956 62.3603 15.6159 62.0464 15.5463 61.606C15.4695 61.1189 15.8024 60.6617 16.2895 60.5853C16.6902 60.5221 56.5695 54.2681 74.1838 53.6742C74.6591 53.6599 75.0899 54.0435 75.1063 54.5364C75.1227 55.0292 74.7366 55.4424 74.2438 55.4589C56.7388 56.0489 16.967 62.2864 16.5674 62.3492C16.5202 62.3567 16.4734 62.3603 16.4274 62.3603Z" fill="#161616"/>
<path d="M124.456 73.5657C124.913 73.5657 125.285 73.1946 125.285 72.7368C125.285 72.279 124.913 71.9078 124.456 71.9078C123.998 71.9078 123.627 72.279 123.627 72.7368C123.627 73.1946 123.998 73.5657 124.456 73.5657Z" fill="#161616"/>
<path d="M128.384 73.5657C128.842 73.5657 129.213 73.1946 129.213 72.7368C129.213 72.279 128.842 71.9078 128.384 71.9078C127.926 71.9078 127.555 72.279 127.555 72.7368C127.555 73.1946 127.926 73.5657 128.384 73.5657Z" fill="#161616"/>
<path d="M126.241 69.994C126.699 69.994 127.07 69.6229 127.07 69.1651C127.07 68.7073 126.699 68.3362 126.241 68.3362C125.784 68.3362 125.412 68.7073 125.412 69.1651C125.412 69.6229 125.784 69.994 126.241 69.994Z" fill="#161616"/>
<path d="M96.5985 75.3513C97.0563 75.3513 97.4274 74.9802 97.4274 74.5224C97.4274 74.0646 97.0563 73.6935 96.5985 73.6935C96.1407 73.6935 95.7695 74.0646 95.7695 74.5224C95.7695 74.9802 96.1407 75.3513 96.5985 75.3513Z" fill="#161616"/>
<path d="M100.527 75.3513C100.985 75.3513 101.356 74.9802 101.356 74.5224C101.356 74.0646 100.985 73.6935 100.527 73.6935C100.069 73.6935 99.6982 74.0646 99.6982 74.5224C99.6982 74.9802 100.069 75.3513 100.527 75.3513Z" fill="#161616"/>
<path d="M98.3843 71.7797C98.8421 71.7797 99.2132 71.4086 99.2132 70.9508C99.2132 70.4929 98.8421 70.1218 98.3843 70.1218C97.9265 70.1218 97.5554 70.4929 97.5554 70.9508C97.5554 71.4086 97.9265 71.7797 98.3843 71.7797Z" fill="#161616"/>
<path d="M63.7413 78.9227C64.1991 78.9227 64.5702 78.5516 64.5702 78.0938C64.5702 77.636 64.1991 77.2649 63.7413 77.2649C63.2835 77.2649 62.9124 77.636 62.9124 78.0938C62.9124 78.5516 63.2835 78.9227 63.7413 78.9227Z" fill="#161616"/>
<path d="M67.6699 78.9227C68.1277 78.9227 68.4988 78.5516 68.4988 78.0938C68.4988 77.636 68.1277 77.2649 67.6699 77.2649C67.2121 77.2649 66.841 77.636 66.841 78.0938C66.841 78.5516 67.2121 78.9227 67.6699 78.9227Z" fill="#161616"/>
<path d="M65.5271 75.3511C65.9849 75.3511 66.356 74.98 66.356 74.5222C66.356 74.0644 65.9849 73.6932 65.5271 73.6932C65.0693 73.6932 64.6982 74.0644 64.6982 74.5222C64.6982 74.98 65.0693 75.3511 65.5271 75.3511Z" fill="#161616"/>
<path d="M25.1698 83.2089C25.6276 83.2089 25.9988 82.8378 25.9988 82.38C25.9988 81.9221 25.6276 81.551 25.1698 81.551C24.712 81.551 24.3409 81.9221 24.3409 82.38C24.3409 82.8378 24.712 83.2089 25.1698 83.2089Z" fill="#161616"/>
<path d="M29.0984 83.2089C29.5562 83.2089 29.9273 82.8378 29.9273 82.38C29.9273 81.9221 29.5562 81.551 29.0984 81.551C28.6406 81.551 28.2695 81.9221 28.2695 82.38C28.2695 82.8378 28.6406 83.2089 29.0984 83.2089Z" fill="#161616"/>
<path d="M26.9556 79.6372C27.4134 79.6372 27.7845 79.2661 27.7845 78.8083C27.7845 78.3505 27.4134 77.9794 26.9556 77.9794C26.4978 77.9794 26.1266 78.3505 26.1266 78.8083C26.1266 79.2661 26.4978 79.6372 26.9556 79.6372Z" fill="#161616"/>
<path d="M40.5271 66.7802C40.9849 66.7802 41.356 66.409 41.356 65.9512C41.356 65.4934 40.9849 65.1223 40.5271 65.1223C40.0693 65.1223 39.6982 65.4934 39.6982 65.9512C39.6982 66.409 40.0693 66.7802 40.5271 66.7802Z" fill="#161616"/>
<path d="M44.4556 66.7802C44.9134 66.7802 45.2846 66.409 45.2846 65.9512C45.2846 65.4934 44.9134 65.1223 44.4556 65.1223C43.9978 65.1223 43.6267 65.4934 43.6267 65.9512C43.6267 66.409 43.9978 66.7802 44.4556 66.7802Z" fill="#161616"/>
<path d="M42.3128 63.2085C42.7707 63.2085 43.1418 62.8374 43.1418 62.3796C43.1418 61.9218 42.7707 61.5507 42.3128 61.5507C41.855 61.5507 41.4839 61.9218 41.4839 62.3796C41.4839 62.8374 41.855 63.2085 42.3128 63.2085Z" fill="#161616"/>
<path d="M72.3126 63.9227C72.7704 63.9227 73.1416 63.5516 73.1416 63.0938C73.1416 62.636 72.7704 62.2649 72.3126 62.2649C71.8548 62.2649 71.4837 62.636 71.4837 63.0938C71.4837 63.5516 71.8548 63.9227 72.3126 63.9227Z" fill="#161616"/>
<path d="M76.2412 63.9227C76.699 63.9227 77.0701 63.5516 77.0701 63.0938C77.0701 62.636 76.699 62.2649 76.2412 62.2649C75.7834 62.2649 75.4122 62.636 75.4122 63.0938C75.4122 63.5516 75.7834 63.9227 76.2412 63.9227Z" fill="#161616"/>
<path d="M74.0984 60.3515C74.5562 60.3515 74.9273 59.9803 74.9273 59.5225C74.9273 59.0647 74.5562 58.6936 74.0984 58.6936C73.6406 58.6936 73.2694 59.0647 73.2694 59.5225C73.2694 59.9803 73.6406 60.3515 74.0984 60.3515Z" fill="#161616"/>
<path d="M22.3128 57.1372C22.7706 57.1372 23.1417 56.7661 23.1417 56.3083C23.1417 55.8505 22.7706 55.4794 22.3128 55.4794C21.8549 55.4794 21.4838 55.8505 21.4838 56.3083C21.4838 56.7661 21.8549 57.1372 22.3128 57.1372Z" fill="#161616"/>
<path d="M26.2413 57.1372C26.6991 57.1372 27.0702 56.7661 27.0702 56.3083C27.0702 55.8505 26.6991 55.4794 26.2413 55.4794C25.7835 55.4794 25.4124 55.8505 25.4124 56.3083C25.4124 56.7661 25.7835 57.1372 26.2413 57.1372Z" fill="#161616"/>
<path d="M24.0986 53.5656C24.5564 53.5656 24.9275 53.1944 24.9275 52.7366C24.9275 52.2788 24.5564 51.9077 24.0986 51.9077C23.6408 51.9077 23.2696 52.2788 23.2696 52.7366C23.2696 53.1944 23.6408 53.5656 24.0986 53.5656Z" fill="#161616"/>
<path d="M361.204 183.376C361.204 183.376 360.125 177.497 360.975 175.027C360.975 175.027 365.981 180.393 366.241 184.763L361.204 183.376Z" fill="#1D5E73"/>
<path d="M413.443 200.356C413.443 200.356 428.639 205.499 424.633 214.133C420.626 222.766 390.445 221.431 384.036 222.499C384.036 222.499 389.111 212.676 395.787 212.379C402.464 212.082 404.67 213.543 404.67 213.543L402.998 210.462C402.998 210.462 410.267 209.703 413.443 211.427C416.619 213.151 416.916 206.484 412.628 204.209L413.443 200.356Z" fill="#161616"/>
<path d="M377.135 204.209C377.135 204.209 383.266 205.675 381.132 209.747C378.998 213.819 365.11 214.946 363.775 213.581C362.44 212.216 367.258 204.749 377.135 204.209Z" fill="#161616"/>
<path d="M367.073 215.026C363.939 215.026 363.356 214.43 363.137 214.205C362.816 213.877 362.363 213.1 362.948 211.597C364.102 208.631 368.961 203.762 377.087 203.317C377.173 203.312 377.259 203.32 377.343 203.34C377.723 203.431 381.091 204.297 382.16 206.65C382.5 207.397 382.735 208.613 381.924 210.161C379.997 213.837 371.086 215.026 367.073 215.026ZM364.449 212.961C364.697 213.063 365.464 213.24 367.073 213.24C371.758 213.24 379.073 211.753 380.341 209.333C380.729 208.593 380.792 207.957 380.534 207.389C379.957 206.118 377.929 205.344 377.049 205.109C371.106 205.475 366.988 208.537 365.259 211.062C364.543 212.109 364.438 212.749 364.449 212.961Z" fill="#DEE5DC"/>
<path d="M372.743 188.549C372.743 188.549 392.93 175.195 402.32 177.911C418.81 182.68 412.171 205.357 411.882 208.571H375.076L372.743 188.549Z" fill="#161616"/>
<path d="M411.882 209.286H375.076C374.623 209.286 374.242 208.947 374.189 208.497L371.856 188.564C371.818 188.229 371.969 187.902 372.25 187.716C372.939 187.259 389.235 176.52 399.478 176.52C400.615 176.52 401.654 176.654 402.568 176.919C417.871 181.344 414.268 200.384 413.084 206.641C412.926 207.474 412.802 208.132 412.771 208.472C412.73 208.933 412.344 209.286 411.882 209.286ZM375.871 207.5H411.11C411.168 207.166 411.243 206.77 411.329 206.309C412.556 199.828 415.814 182.609 402.072 178.634C401.319 178.417 400.446 178.306 399.478 178.306C390.685 178.306 376.422 187.161 373.695 188.908L375.871 207.5Z" fill="#DEE5DC"/>
<path d="M353.654 204.78C353.654 204.78 371.08 209.779 375.621 209.797C380.162 209.814 386.171 212.379 386.171 205.807L385.35 202.82C385.35 202.82 376.022 199.091 375.688 194.035C375.354 188.981 369.689 185.079 361.204 183.376C343.297 179.782 342.516 201.814 353.654 204.78Z" fill="#161616"/>
<path d="M381.824 211.197C380.808 211.197 379.708 211.066 378.645 210.94C377.622 210.819 376.565 210.693 375.618 210.69C371.006 210.672 354.124 205.844 353.408 205.639C347.371 204.031 344.841 197.531 345.534 192.233C346.176 187.329 349.646 182.088 357.461 182.088C358.698 182.088 360.016 182.227 361.38 182.501C370.544 184.34 376.227 188.631 376.58 193.977C376.823 197.663 383.233 201.012 385.682 201.991C385.942 202.094 386.138 202.313 386.212 202.583L387.033 205.571C387.054 205.648 387.064 205.727 387.064 205.807C387.064 207.81 386.552 209.22 385.499 210.116C384.634 210.853 383.466 211.197 381.824 211.197ZM357.461 183.874C350.802 183.874 347.848 188.312 347.304 192.465C346.71 197.01 348.814 202.567 353.884 203.917C354.073 203.972 371.258 208.887 375.625 208.904C376.674 208.908 377.783 209.04 378.855 209.167C379.914 209.292 380.914 209.411 381.824 209.411C383.017 209.411 383.817 209.203 384.341 208.757C384.954 208.235 385.261 207.308 385.278 205.925L384.604 203.475C382.706 202.651 375.125 199.056 374.798 194.094C374.501 189.602 369.353 185.923 361.028 184.251C359.78 184.001 358.579 183.874 357.461 183.874Z" fill="#DEE5DC"/>
<path d="M405.675 192.464C405.675 192.464 394.706 191.56 398.17 201.682C398.17 201.682 387.923 204.445 389.366 208.269" fill="#161616"/>
<path d="M389.366 209.162C389.005 209.162 388.665 208.941 388.53 208.584C388.223 207.769 388.279 206.909 388.694 206.1C390.025 203.5 394.946 201.732 397.047 201.079C396.258 198.257 396.513 195.987 397.81 194.323C400.272 191.161 405.527 191.554 405.748 191.574C406.24 191.614 406.605 192.045 406.565 192.537C406.525 193.028 406.09 193.389 405.603 193.354C405.541 193.349 401.076 193.028 399.215 195.424C398.182 196.754 398.115 198.763 399.014 201.392C399.094 201.626 399.074 201.882 398.958 202.1C398.842 202.318 398.641 202.479 398.402 202.543C396.504 203.057 391.343 204.842 390.283 206.914C390.097 207.278 390.071 207.608 390.201 207.953C390.375 208.414 390.142 208.929 389.681 209.103C389.577 209.143 389.471 209.162 389.366 209.162Z" fill="#DEE5DC"/>
<path d="M349.558 203.063C349.558 203.063 343.084 204.612 345.337 208.912C347.59 213.212 362.258 214.403 363.668 212.961C365.078 211.519 359.989 203.633 349.558 203.063Z" fill="#161616"/>
<path d="M360.186 214.286H360.185C355.956 214.286 346.568 213.112 344.546 209.251C343.866 207.953 343.782 206.758 344.297 205.624C345.436 203.119 349.191 202.214 349.35 202.176C349.435 202.156 349.521 202.157 349.607 202.163C358.165 202.63 363.281 207.76 364.495 210.88C365.102 212.441 364.637 213.169 364.307 213.508C364.079 213.741 363.473 214.286 360.186 214.286ZM349.645 203.963C348.712 204.214 346.537 205.047 345.922 206.404C345.644 207.018 345.711 207.703 346.128 208.498C346.73 209.646 348.788 210.682 351.777 211.47C354.359 212.152 357.581 212.5 360.185 212.5H360.186C361.954 212.5 362.765 212.373 363.004 212.265C363.026 212.071 362.952 211.468 362.24 210.381C360.445 207.641 356.075 204.357 349.645 203.963Z" fill="#DEE5DC"/>
<path d="M366.957 198.255C366.957 198.255 368.739 201.143 371.945 198.255Z" fill="#161616"/>
<path d="M369.234 200.432C369.071 200.432 368.909 200.421 368.747 200.398C367.13 200.166 366.288 198.871 366.197 198.724C365.938 198.304 366.068 197.754 366.488 197.495C366.905 197.238 367.452 197.365 367.713 197.78C367.731 197.808 368.213 198.525 369.015 198.632C369.695 198.72 370.48 198.373 371.346 197.592C371.713 197.261 372.277 197.291 372.608 197.658C372.938 198.024 372.908 198.588 372.542 198.919C371.426 199.925 370.315 200.432 369.234 200.432Z" fill="#DEE5DC"/>
<path d="M380.632 201.885C380.632 201.885 380.25 207.198 384.639 205.71C389.029 204.223 384.349 200.61 380.632 201.885Z" fill="#1D5E73"/>
<path d="M355.945 199.917C355.945 199.917 355.187 205.214 359.437 206.192Z" fill="#161616"/>
<path d="M359.438 207.085C359.371 207.085 359.304 207.078 359.237 207.063C355.243 206.143 354.759 201.904 355.062 199.79C355.131 199.303 355.585 198.96 356.072 199.033C356.56 199.103 356.898 199.554 356.83 200.042C356.805 200.225 356.248 204.542 359.637 205.322C360.118 205.433 360.418 205.912 360.307 206.393C360.212 206.806 359.844 207.085 359.438 207.085Z" fill="#DEE5DC"/>
<path d="M357.15 185.106C357.15 185.106 349.847 177.709 344.572 177.152C339.298 176.595 345.371 188.576 349.56 189.492" fill="#161616"/>
<path d="M349.561 190.386C349.498 190.386 349.434 190.378 349.37 190.365C345.63 189.546 341.126 181.82 341.679 178.4C341.923 176.891 343.042 176.092 344.666 176.264C350.195 176.848 357.478 184.168 357.785 184.479C358.132 184.83 358.128 185.395 357.777 185.742C357.427 186.088 356.861 186.085 356.515 185.734C356.444 185.662 349.373 178.557 344.479 178.04C343.631 177.95 343.507 178.28 343.442 178.686C343.028 181.246 346.983 188.015 349.751 188.62C350.233 188.726 350.538 189.202 350.433 189.683C350.341 190.101 349.971 190.385 349.561 190.386Z" fill="#DEE5DC"/>
<path d="M352.9 189.492C352.9 189.492 346.447 179.782 343.297 178.507C343.297 178.507 344.186 189.638 352.9 189.492Z" fill="#1D5E73"/>
<path d="M229.821 234.107C229.328 234.107 228.929 233.707 228.929 233.214V228.571C228.929 228.078 229.328 227.678 229.821 227.678C230.315 227.678 230.714 228.078 230.714 228.571V233.214C230.714 233.707 230.315 234.107 229.821 234.107Z" fill="#161616"/>
<path d="M233.124 235.322C233.029 235.322 232.933 235.307 232.838 235.275C232.37 235.116 232.12 234.61 232.279 234.142L233.494 230.558C233.652 230.092 234.159 229.841 234.626 230C235.093 230.158 235.343 230.665 235.185 231.132L233.97 234.716C233.844 235.088 233.496 235.322 233.124 235.322Z" fill="#161616"/>
<path d="M237.451 235.322C237.205 235.322 236.96 235.221 236.784 235.023C236.456 234.655 236.489 234.09 236.857 233.763L238.871 231.97C239.239 231.643 239.803 231.675 240.131 232.044C240.459 232.412 240.426 232.976 240.058 233.304L238.044 235.096C237.874 235.248 237.662 235.322 237.451 235.322Z" fill="#161616"/>
<path d="M183.4 154.811C183.055 154.811 182.726 154.61 182.581 154.273L180.735 150.013C180.539 149.561 180.747 149.035 181.199 148.839C181.652 148.643 182.177 148.85 182.373 149.303L184.219 153.563C184.415 154.016 184.207 154.541 183.755 154.737C183.639 154.788 183.519 154.811 183.4 154.811Z" fill="#161616"/>
<path d="M186.913 154.613C186.453 154.613 186.062 154.26 186.024 153.793L185.714 150.022C185.674 149.53 186.039 149.099 186.531 149.059C187.025 149.017 187.453 149.384 187.493 149.875L187.803 153.647C187.844 154.139 187.478 154.57 186.987 154.61C186.962 154.612 186.937 154.613 186.913 154.613Z" fill="#161616"/>
<path d="M190.883 152.893C190.757 152.893 190.629 152.866 190.508 152.81C190.06 152.602 189.866 152.071 190.074 151.624L191.209 149.179C191.416 148.732 191.947 148.538 192.394 148.745C192.842 148.953 193.036 149.484 192.828 149.931L191.693 152.376C191.542 152.701 191.22 152.893 190.883 152.893Z" fill="#161616"/>
<path d="M350.129 214.981C350.074 214.981 350.017 214.976 349.961 214.966C349.476 214.873 349.159 214.405 349.251 213.921L350.122 209.361C350.215 208.876 350.684 208.56 351.167 208.651C351.651 208.744 351.969 209.211 351.876 209.696L351.005 214.256C350.924 214.684 350.549 214.981 350.129 214.981Z" fill="#161616"/>
<path d="M346.655 215.555C346.216 215.555 345.834 215.232 345.771 214.785L345.251 211.037C345.183 210.549 345.524 210.098 346.012 210.03C346.502 209.964 346.952 210.303 347.02 210.792L347.54 214.54C347.608 215.028 347.267 215.479 346.778 215.547C346.737 215.552 346.696 215.555 346.655 215.555Z" fill="#161616"/>
<path d="M342.407 214.743C342.139 214.743 341.874 214.623 341.698 214.394L340.057 212.256C339.756 211.864 339.83 211.304 340.221 211.003C340.613 210.704 341.173 210.776 341.473 211.168L343.115 213.306C343.415 213.698 343.341 214.258 342.95 214.558C342.788 214.683 342.597 214.743 342.407 214.743Z" fill="#161616"/>
<path d="M325.247 80.3568C324.76 80.3568 324.362 80.0504 324.354 79.5618L324.228 71.7475C324.221 71.2547 324.614 70.8693 325.107 70.8614C325.604 70.8472 326.006 71.2572 326.014 71.7504L326.14 79.5279C326.147 80.0211 325.755 80.3564 325.261 80.3564C325.257 80.3568 325.252 80.3568 325.247 80.3568Z" fill="#161616"/>
<path d="M334.531 78.5713C334.045 78.5713 333.647 78.1906 333.639 77.702L333.513 69.8406C333.505 69.3478 333.898 68.9285 334.391 68.9285C334.396 68.9285 334.401 68.9285 334.406 68.9285C334.893 68.9285 335.291 69.3285 335.299 69.8167L335.425 77.6685C335.432 78.1613 335.039 78.571 334.546 78.571C334.541 78.5713 334.536 78.5713 334.531 78.5713Z" fill="#161616"/>
<path d="M342.745 78.5713C342.258 78.5713 341.86 78.1245 341.852 77.6363L341.726 69.8078C341.719 69.3145 342.112 68.9285 342.605 68.9285C342.61 68.9285 342.615 68.9285 342.62 68.9285C343.106 68.9285 343.504 69.2631 343.512 69.751L343.638 77.636C343.645 78.1292 343.252 78.5713 342.759 78.5713C342.754 78.5713 342.749 78.5713 342.745 78.5713Z" fill="#161616"/>
<path d="M352.029 77.8567C351.543 77.8567 351.145 77.5142 351.137 77.026L351.011 69.1935C351.003 68.7007 351.396 68.3064 351.889 68.2985C352.387 68.2935 352.789 68.6899 352.796 69.1828L352.922 76.9942C352.93 77.4871 352.537 77.8567 352.044 77.8567C352.039 77.8567 352.034 77.8567 352.029 77.8567Z" fill="#161616"/>
<path d="M360.6 77.1428C360.113 77.1428 359.715 76.7317 359.707 76.2431L359.581 68.3767C359.574 67.8838 359.966 67.4724 360.46 67.4646C360.952 67.4513 361.359 67.8471 361.367 68.3403L361.493 76.216C361.5 76.7088 361.108 77.1428 360.614 77.1428C360.609 77.1428 360.604 77.1428 360.6 77.1428Z" fill="#161616"/>
<path d="M369.884 76.7855C369.397 76.7855 368.999 76.4784 368.991 75.9902L368.866 68.1755C368.858 67.6823 369.251 67.2973 369.744 67.2895C370.254 67.2848 370.644 67.6855 370.651 68.1784L370.777 75.9566C370.785 76.4498 370.392 76.7855 369.899 76.7855C369.894 76.7855 369.889 76.7855 369.884 76.7855Z" fill="#161616"/>
<path d="M378.097 76.7854C377.611 76.7854 377.212 76.4125 377.205 75.9243L377.078 68.0772C377.071 67.5843 377.464 67.1825 377.957 67.1747C378.467 67.1611 378.856 67.5618 378.864 68.055L378.99 75.895C378.998 76.3879 378.605 76.7857 378.112 76.7857C378.107 76.7854 378.102 76.7854 378.097 76.7854Z" fill="#161616"/>
<path d="M387.382 77.1424C386.895 77.1424 386.497 76.6953 386.489 76.2071L386.363 68.3224C386.356 67.8296 386.749 67.4092 387.242 67.401C387.734 67.3896 388.141 67.7792 388.149 68.2724L388.275 76.1817C388.283 76.6746 387.89 77.1421 387.396 77.1421C387.391 77.1424 387.387 77.1424 387.382 77.1424Z" fill="#161616"/>
<path d="M395.595 77.4995C395.109 77.4995 394.71 77.1653 394.703 76.677L394.576 68.8488C394.569 68.356 394.962 67.9638 395.455 67.956C395.948 67.941 396.354 68.3481 396.362 68.8413L396.488 76.6453C396.496 77.1381 396.103 77.4999 395.61 77.4999C395.605 77.4995 395.6 77.4995 395.595 77.4995Z" fill="#161616"/>
<path d="M404.88 77.4997C404.393 77.4997 403.995 77.0908 403.987 76.6026L403.861 68.7376C403.853 68.2447 404.246 67.8336 404.74 67.8258C405.25 67.819 405.639 68.209 405.647 68.7018L405.773 76.5754C405.78 77.0683 405.387 77.4997 404.894 77.4997C404.889 77.4997 404.885 77.4997 404.88 77.4997Z" fill="#161616"/>
<path d="M413.092 79.2854C412.606 79.2854 412.208 78.8107 412.2 78.3225L412.074 70.4243C412.067 69.9311 412.46 69.5039 412.953 69.4961C413.463 69.485 413.852 69.8707 413.86 70.3639L413.986 78.2993C413.993 78.7925 413.6 79.2854 413.107 79.2854C413.102 79.2854 413.097 79.2854 413.092 79.2854Z" fill="#161616"/>
<path d="M322.358 76.0301C321.917 76.0301 321.533 75.7026 321.474 75.253C321.41 74.7641 321.754 74.3158 322.243 74.2519C322.858 74.1719 384.096 66.2798 416.718 72.6191C417.202 72.713 417.518 73.1819 417.424 73.6658C417.33 74.1501 416.864 74.4662 416.378 74.3719C384.038 68.0873 323.087 75.9423 322.475 76.0226C322.436 76.0273 322.397 76.0301 322.358 76.0301Z" fill="#161616"/>
<path d="M375.893 38.4659L407.477 40.2981L412.967 48.727L412.241 63.1609L384.301 62.1888L375.893 38.4659Z" fill="#161616"/>
<path d="M365 60.7284V46.4363L375.863 38.4659L384.707 47.6274L384.264 62.1888C384.263 62.1888 371.786 60.3784 365 60.7284Z" fill="#161616"/>
<path d="M384.215 63.0815C384.205 63.0815 384.195 63.0815 384.186 63.0811C383.693 63.0654 383.306 62.6526 383.322 62.1597L383.783 47.9761L375.182 39.0865C374.839 38.7322 374.848 38.1668 375.203 37.824C375.558 37.4818 376.123 37.4908 376.466 37.8451L385.329 47.0065C385.497 47.1801 385.588 47.4147 385.58 47.6561L385.107 62.2176C385.091 62.7008 384.695 63.0815 384.215 63.0815Z" fill="#DEE5DC"/>
<path d="M377.978 62.0232C377.942 62.0232 377.905 62.0211 377.868 62.0165C377.379 61.9561 377.031 61.5107 377.091 61.0215C377.31 59.2322 377.513 54.1372 375.837 52.0743C375.411 51.5508 374.897 51.2704 374.266 51.2168C373.677 51.1658 373.224 51.3311 372.832 51.7325C371.121 53.4833 371.275 58.7654 371.478 60.6533C371.531 61.1436 371.176 61.5836 370.686 61.6368C370.193 61.6897 369.756 61.3347 369.703 60.8447C369.695 60.7682 369.502 58.949 369.607 56.7982C369.756 53.7793 370.411 51.6554 371.554 50.4847C372.315 49.7058 373.305 49.3436 374.415 49.4372C375.541 49.5322 376.486 50.0411 377.223 50.9497C379.72 54.025 378.899 60.9465 378.863 61.2397C378.807 61.6918 378.422 62.0232 377.978 62.0232Z" fill="#DEE5DC"/>
<path d="M396.428 40.4985V32.8571H401.786V41.0653L396.428 40.4985Z" fill="#161616"/>
<path d="M144.611 38.2737C144.5 38.2737 144.388 38.2529 144.28 38.2097L141.305 37.0194C140.848 36.8362 140.625 36.3165 140.808 35.8587C140.992 35.4012 141.51 35.1783 141.969 35.3615L144.362 36.3194L145.643 34.8819C145.971 34.514 146.535 34.4808 146.904 34.8097C147.272 35.1379 147.304 35.7022 146.976 36.0704L145.278 37.9751C145.105 38.169 144.861 38.2737 144.611 38.2737Z" fill="#161616"/>
<path d="M141.04 48.6309C140.928 48.6309 140.816 48.6102 140.708 48.567L137.734 47.3766C137.276 47.1934 137.054 46.6738 137.236 46.2159C137.42 45.7584 137.939 45.5356 138.397 45.7188L140.79 46.6766L142.072 45.2391C142.4 44.8713 142.964 44.8384 143.333 45.167C143.7 45.4952 143.733 46.0595 143.405 46.4277L141.706 48.3324C141.534 48.5263 141.289 48.6309 141.04 48.6309Z" fill="#161616"/>
<path d="M155.683 47.5594C155.571 47.5594 155.459 47.5387 155.351 47.4955L152.377 46.3051C151.919 46.1219 151.696 45.6023 151.879 45.1444C152.063 44.6869 152.582 44.4637 153.04 44.6473L155.433 45.6051L156.715 44.1676C157.043 43.7998 157.607 43.7669 157.975 44.0955C158.343 44.4237 158.376 44.988 158.048 45.3562L156.349 47.2608C156.176 47.4548 155.932 47.5594 155.683 47.5594Z" fill="#161616"/>
<path d="M155.683 32.9166C155.571 32.9166 155.459 32.8959 155.351 32.8527L152.377 31.6623C151.919 31.4791 151.696 30.9595 151.879 30.5016C152.063 30.0441 152.582 29.8212 153.04 30.0045L155.433 30.9623L156.715 29.5248C157.043 29.157 157.607 29.1237 157.975 29.4527C158.343 29.7809 158.376 30.3452 158.048 30.7134L156.349 32.618C156.176 32.812 155.932 32.9166 155.683 32.9166Z" fill="#161616"/>
<path d="M128.54 28.6311C128.428 28.6311 128.316 28.6104 128.208 28.5671L125.234 27.3768C124.776 27.1936 124.554 26.6739 124.736 26.2161C124.92 25.7589 125.439 25.5357 125.897 25.7189L128.29 26.6768L129.572 25.2393C129.9 24.8711 130.464 24.8382 130.832 25.1671C131.2 25.4954 131.233 26.0596 130.905 26.4279L129.206 28.3325C129.034 28.5264 128.789 28.6311 128.54 28.6311Z" fill="#161616"/>
<path d="M113.036 277.678C112.542 277.678 112.143 277.279 112.143 276.786V272.143C112.143 271.65 112.542 271.25 113.036 271.25C113.529 271.25 113.929 271.65 113.929 272.143V276.786C113.929 277.279 113.529 277.678 113.036 277.678Z" fill="#161616"/>
<path d="M116.339 278.894C116.244 278.894 116.147 278.879 116.052 278.846C115.585 278.688 115.335 278.181 115.493 277.714L116.708 274.13C116.866 273.664 117.374 273.412 117.84 273.571C118.308 273.73 118.558 274.236 118.399 274.704L117.184 278.288C117.058 278.659 116.711 278.894 116.339 278.894Z" fill="#161616"/>
<path d="M120.665 278.894C120.42 278.894 120.175 278.793 119.998 278.594C119.67 278.226 119.703 277.662 120.071 277.334L122.085 275.542C122.453 275.214 123.017 275.247 123.345 275.615C123.673 275.983 123.64 276.548 123.272 276.876L121.258 278.668C121.088 278.819 120.876 278.894 120.665 278.894Z" fill="#161616"/>
<path d="M156.964 205.536C156.471 205.536 156.071 205.136 156.071 204.643V200C156.071 199.507 156.471 199.107 156.964 199.107C157.457 199.107 157.857 199.507 157.857 200V204.643C157.857 205.136 157.457 205.536 156.964 205.536Z" fill="#161616"/>
<path d="M160.267 206.751C160.172 206.751 160.075 206.736 159.98 206.703C159.513 206.545 159.263 206.038 159.422 205.571L160.637 201.987C160.794 201.521 161.302 201.269 161.769 201.428C162.236 201.587 162.486 202.093 162.327 202.561L161.112 206.145C160.987 206.516 160.639 206.751 160.267 206.751Z" fill="#161616"/>
<path d="M164.594 206.751C164.348 206.751 164.103 206.65 163.926 206.451C163.599 206.083 163.631 205.519 164 205.191L166.013 203.399C166.381 203.071 166.945 203.104 167.274 203.472C167.601 203.84 167.569 204.405 167.2 204.732L165.187 206.525C165.017 206.676 164.805 206.751 164.594 206.751Z" fill="#161616"/>
<path d="M313.036 265.179C312.542 265.179 312.143 264.779 312.143 264.286V259.643C312.143 259.15 312.542 258.75 313.036 258.75C313.529 258.75 313.928 259.15 313.928 259.643V264.286C313.928 264.779 313.529 265.179 313.036 265.179Z" fill="#161616"/>
<path d="M316.338 266.394C316.243 266.394 316.147 266.378 316.052 266.346C315.584 266.188 315.334 265.681 315.493 265.214L316.708 261.63C316.866 261.163 317.373 260.912 317.84 261.071C318.307 261.23 318.557 261.736 318.399 262.203L317.184 265.787C317.058 266.159 316.71 266.394 316.338 266.394Z" fill="#161616"/>
<path d="M320.665 266.393C320.419 266.393 320.174 266.292 319.998 266.094C319.67 265.726 319.703 265.162 320.071 264.834L322.085 263.042C322.453 262.713 323.017 262.747 323.345 263.115C323.673 263.483 323.64 264.047 323.272 264.375L321.258 266.167C321.088 266.319 320.876 266.393 320.665 266.393Z" fill="#161616"/>
<path d="M259.107 185.893C258.614 185.893 258.214 185.493 258.214 185V180.357C258.214 179.864 258.614 179.464 259.107 179.464C259.6 179.464 260 179.864 260 180.357V185C260 185.493 259.6 185.893 259.107 185.893Z" fill="#161616"/>
<path d="M262.41 187.108C262.315 187.108 262.218 187.093 262.123 187.06C261.656 186.902 261.406 186.395 261.565 185.928L262.78 182.344C262.938 181.877 263.445 181.626 263.912 181.786C264.379 181.944 264.629 182.451 264.47 182.918L263.255 186.502C263.13 186.873 262.782 187.108 262.41 187.108Z" fill="#161616"/>
<path d="M266.737 187.108C266.491 187.108 266.246 187.007 266.07 186.808C265.742 186.44 265.775 185.876 266.143 185.548L268.156 183.756C268.525 183.428 269.088 183.461 269.417 183.829C269.745 184.197 269.712 184.762 269.343 185.089L267.33 186.882C267.16 187.033 266.948 187.108 266.737 187.108Z" fill="#161616"/>
<path d="M80.5355 144.107C80.0423 144.107 79.6426 143.707 79.6426 143.214V138.571C79.6426 138.078 80.0423 137.678 80.5355 137.678C81.0287 137.678 81.4283 138.078 81.4283 138.571V143.214C81.4283 143.707 81.0287 144.107 80.5355 144.107Z" fill="#161616"/>
<path d="M83.8386 145.322C83.7436 145.322 83.6468 145.307 83.5518 145.275C83.0847 145.117 82.8347 144.61 82.9933 144.143L84.2083 140.559C84.3661 140.092 84.8736 139.841 85.3404 140C85.8076 140.158 86.0576 140.665 85.899 141.132L84.684 144.716C84.5583 145.088 84.2108 145.322 83.8386 145.322Z" fill="#161616"/>
<path d="M88.1653 145.322C87.9196 145.322 87.6746 145.221 87.4981 145.023C87.1703 144.655 87.2031 144.09 87.5714 143.762L89.5849 141.97C89.9531 141.642 90.5171 141.675 90.8453 142.044C91.1731 142.412 91.1403 142.976 90.7721 143.304L88.7585 145.096C88.5885 145.248 88.3764 145.322 88.1653 145.322Z" fill="#161616"/>
<path d="M139.821 114.107C139.328 114.107 138.928 113.707 138.928 113.214V108.571C138.928 108.078 139.328 107.678 139.821 107.678C140.314 107.678 140.714 108.078 140.714 108.571V113.214C140.714 113.707 140.314 114.107 139.821 114.107Z" fill="#161616"/>
<path d="M143.124 115.323C143.029 115.323 142.932 115.307 142.837 115.275C142.37 115.117 142.12 114.61 142.279 114.143L143.494 110.559C143.652 110.092 144.159 109.841 144.626 110C145.093 110.158 145.343 110.665 145.185 111.132L143.97 114.716C143.844 115.088 143.496 115.323 143.124 115.323Z" fill="#161616"/>
<path d="M147.451 115.322C147.205 115.322 146.96 115.221 146.784 115.023C146.456 114.655 146.489 114.09 146.857 113.762L148.871 111.97C149.239 111.642 149.803 111.675 150.131 112.043C150.459 112.412 150.426 112.976 150.058 113.304L148.044 115.096C147.874 115.248 147.662 115.322 147.451 115.322Z" fill="#161616"/>
<path d="M290.893 109.107C290.399 109.107 290 108.708 290 108.214V103.571C290 103.078 290.399 102.679 290.893 102.679C291.386 102.679 291.785 103.078 291.785 103.571V108.214C291.785 108.708 291.386 109.107 290.893 109.107Z" fill="#161616"/>
<path d="M294.196 110.322C294.101 110.322 294.004 110.307 293.909 110.275C293.442 110.117 293.192 109.61 293.35 109.143L294.565 105.559C294.723 105.092 295.231 104.841 295.697 105C296.165 105.158 296.415 105.665 296.256 106.132L295.041 109.716C294.915 110.088 294.568 110.322 294.196 110.322Z" fill="#161616"/>
<path d="M298.522 110.322C298.277 110.322 298.032 110.221 297.855 110.023C297.527 109.655 297.56 109.09 297.928 108.762L299.942 106.97C300.31 106.642 300.874 106.675 301.202 107.043C301.53 107.412 301.497 107.976 301.129 108.304L299.116 110.096C298.946 110.248 298.733 110.322 298.522 110.322Z" fill="#161616"/>
</svg>
